<?xml version="1.0" encoding="utf-8"?>
<!-- Generator: Adobe Illustrator 25.4.2, SVG Export Plug-In . SVG Version: 6.00 Build 0)  -->
<svg version="1.1" id="Layer_1" xmlns="http://www.w3.org/2000/svg" xmlns:xlink="http://www.w3.org/1999/xlink" x="0px" y="0px"
	 viewBox="0 0 177.7 182.2" style="enable-background:new 0 0 177.7 182.2;" xml:space="preserve">
<style type="text/css">
	.st0{fill:none;stroke:#000000;stroke-linecap:round;stroke-linejoin:round;}
</style>
<path class="st0" d="M30.8,96.6l-2.6-1.1"/>
<path class="st0" d="M77,150.6l-55.8-28.1"/>
<path class="st0" d="M150.6,99.8L154,99"/>
<path class="st0" d="M76.9,144L21,116.7"/>
<path class="st0" d="M162.5,126.9l0.1-2.9"/>
<path class="st0" d="M19.4,116l-0.7-15.1"/>
<path class="st0" d="M92.8,110.5l-2.3,0.1l-2.4,0"/>
<path class="st0" d="M76.7,126.9l2.2,1"/>
<path class="st0" d="M79.1,151.8l-2-1"/>
<path class="st0" d="M120.1,104.7l-1.9,1.1"/>
<path class="st0" d="M143.2,103l4.3-1.1"/>
<path class="st0" d="M153.7,99l0-0.3"/>
<path class="st0" d="M28,94.9l1.8-0.4"/>
<path class="st0" d="M123.2,100.6l0,0.8"/>
<path class="st0" d="M96.9,80.7l0.4-0.1"/>
<path class="st0" d="M79.2,162l-2-1.1"/>
<path class="st0" d="M79,148.6l-0.1-3.4"/>
<path class="st0" d="M78.9,127.9l84.4-22.4"/>
<path class="st0" d="M76.8,126.9l0-0.2"/>
<path class="st0" d="M39.8,92.5l1.8-0.4"/>
<path class="st0" d="M79,145.2l-2-1"/>
<path class="st0" d="M33.8,93.7l2.2-0.4"/>
<path class="st0" d="M153.7,98.8l-3-0.9"/>
<path class="st0" d="M79.3,151.9l83.2-25"/>
<path class="st0" d="M60.3,109l-1.3-0.6"/>
<path class="st0" d="M123.1,100.6l0.1,0.4"/>
<path class="st0" d="M122.3,99.2c0.4,0.5,0.7,1,0.8,1.5"/>
<path class="st0" d="M53.6,92.7l-1.8,0.4"/>
<path class="st0" d="M74.8,115.1l-0.5-0.2"/>
<path class="st0" d="M55,108.6l-3-1.3"/>
<path class="st0" d="M79.5,168.9l82.5-26.8"/>
<path class="st0" d="M79.2,148.6l-0.1-3.4"/>
<path class="st0" d="M54.1,106.4l-2.2-0.9"/>
<path class="st0" d="M117.9,108.1l5.5-1.4"/>
<path class="st0" d="M41.9,101.3l-2.7-1.1"/>
<path class="st0" d="M79,148.6l-2-1"/>
<path class="st0" d="M154.2,97.4l-2.9-0.9"/>
<path class="st0" d="M76.7,126.9l1.1-0.3"/>
<path class="st0" d="M110.9,109.8l3.6-0.9"/>
<path class="st0" d="M151,101l2.4-0.6"/>
<path class="st0" d="M147.2,96.7l-6.1-1.9"/>
<path class="st0" d="M94.8,115.3l7.1-1.8"/>
<path class="st0" d="M33.5,92.8l0.7-0.1"/>
<path class="st0" d="M133.3,104.2l5.4-1.4"/>
<path class="st0" d="M79.5,168.9l-0.6-41"/>
<path class="st0" d="M118.2,109.4l4.8-1.2"/>
<path class="st0" d="M137.6,92.2l-4.3-1.4"/>
<path class="st0" d="M69.9,113l-3.2-1.3"/>
<path class="st0" d="M162,142.1l0.2-6.1"/>
<path class="st0" d="M20.4,136.6l-0.3-5.8"/>
<path class="st0" d="M47.5,94L47.2,94"/>
<path class="st0" d="M20.3,101.5l0.7-0.1"/>
<path class="st0" d="M133.6,105.5l4.7-1.2"/>
<path class="st0" d="M162.7,120.9l0.5-15.5"/>
<path class="st0" d="M35.4,100.3l-1.1-0.5"/>
<path class="st0" d="M153.7,98.8l0.4-0.1"/>
<path class="st0" d="M21.3,122.5l-1.6-0.8"/>
<path class="st0" d="M60.8,106c-3-1.5-4.4-3.1-4.5-4.6"/>
<path class="st0" d="M76.8,126.7l-56.5-25.2"/>
<path class="st0" d="M76.8,126.7l0.7-0.2"/>
<path class="st0" d="M21,116.7l-1.6-0.8"/>
<path class="st0" d="M39.5,91.6l2-0.4"/>
<path class="st0" d="M41.9,103.1l-1.7-0.7"/>
<path class="st0" d="M79.4,162l-0.2-10.1"/>
<path class="st0" d="M79.5,168.9L22,137.4"/>
<path class="st0" d="M163.2,105.5l-0.4-0.1"/>
<path class="st0" d="M20.3,101.6l-1.6-0.7"/>
<path class="st0" d="M45.6,91.3l2.2-0.5"/>
<path class="st0" d="M109.3,111.6l4.5-1.1"/>
<path class="st0" d="M127.3,88.9l-2.2-0.7"/>
<path class="st0" d="M128.1,90.6l-3.6-1.2"/>
<path class="st0" d="M88.3,116.9l0.7-0.2"/>
<path class="st0" d="M19.5,100.7l-0.8,0.2"/>
<path class="st0" d="M128.2,105.4l1.8-0.4"/>
<path class="st0" d="M56.3,101.5c0.1-0.6,0.4-1.2,0.9-1.9"/>
<path class="st0" d="M79.2,162l-0.2-10.1"/>
<path class="st0" d="M147.7,95.4l-3.9-1.2"/>
<path class="st0" d="M122.6,98.9l0.4,1c0.3,1.1,0,2.3-1.2,3.5"/>
<path class="st0" d="M88.1,115.5l2.6-0.7"/>
<path class="st0" d="M19.7,121.7l-0.1-2.6"/>
<path class="st0" d="M56.3,102l0-0.8"/>
<path class="st0" d="M79.2,145.2l83.3-24.2"/>
<path class="st0" d="M69.8,114.9l-1.3-0.6"/>
<path class="st0" d="M20.4,136.6l1.6,0.9"/>
<path class="st0" d="M30.6,98.3L29,97.6"/>
<path class="st0" d="M68.5,108.6l-3.4-0.9"/>
<path class="st0" d="M74.4,109.6l-0.7-0.1"/>
<path class="st0" d="M62.4,111.8l-2.8-1.2"/>
<path class="st0" d="M114.2,107.3l-1.1,0.3"/>
<path class="st0" d="M96,113.5l4.5-1.1"/>
<path class="st0" d="M107.1,109l-4.3,0.7"/>
<path class="st0" d="M103.4,111.7l1.1-0.3"/>
<path class="st0" d="M47.2,90l0.4-0.1"/>
<path class="st0" d="M69.5,54.6l0.6-0.3"/>
<path class="st0" d="M124.4,77.5l0.2,1.4"/>
<path class="st0" d="M110.1,55.7l3.8,3l0.2,0.2"/>
<path class="st0" d="M102.9,109l4.8-0.9"/>
<path class="st0" d="M73.6,108.9l0.6,0.1"/>
<path class="st0" d="M53.6,77.4l1.1-4.3"/>
<path class="st0" d="M59.5,103.3l-2.4-3.8"/>
<path class="st0" d="M56.4,69.1l1.2-2.2"/>
<path class="st0" d="M65.1,106.8l0.2,0.1l2.5,0.8"/>
<path class="st0" d="M93.4,49.4l2.1,0.3"/>
<path class="st0" d="M65.2,57.8l0.2-0.1"/>
<path class="st0" d="M120.9,67.6l1.5,3.2l0.1,0.3"/>
<path class="st0" d="M60.9,104.7l-1.1-1l-0.1-0.2l-0.1-0.2"/>
<path class="st0" d="M100.4,50.9c2.1,0.7,4.1,1.5,6,2.6"/>
<path class="st0" d="M59.5,103.3c0.3,0.5,0.8,0.9,1.4,1.3"/>
<path class="st0" d="M88.2,110.1l4.7-0.1"/>
<path class="st0" d="M116.8,61.7l2.9,3.8"/>
<path class="st0" d="M124.7,88.2c-0.4,2.6-1,5.1-2,7.4"/>
<path class="st0" d="M162.6,135.9l0.3-9.1"/>
<path class="st0" d="M79.2,162L79,151.8"/>
<path class="st0" d="M19.9,130.7L79.2,162"/>
<path class="st0" d="M19.4,115.9l-0.3,0.1"/>
<path class="st0" d="M162.9,126.8l-0.4-0.1"/>
<path class="st0" d="M19.4,115.9l-0.2,0"/>
<path class="st0" d="M19.3,119l-0.1-3"/>
<path class="st0" d="M19.9,130.7l-0.4-8.9"/>
<path class="st0" d="M162.8,120.9l0.3-0.1"/>
<path class="st0" d="M79,148.6l-0.1-3.4"/>
<path class="st0" d="M162.3,127l0.5-0.2"/>
<path class="st0" d="M162,136.1l0.3-9.1"/>
<path class="st0" d="M162.4,124l0.1-3.1"/>
<path class="st0" d="M19.7,121.7l-0.3,0.1"/>
<path class="st0" d="M19.3,119L79,148.6"/>
<path class="st0" d="M162.2,136l0.4-0.1"/>
<path class="st0" d="M79.4,162l82.6-26"/>
<path class="st0" d="M79.2,148.6l83.4-24.7l0.3-0.1"/>
<path class="st0" d="M19.2,116l0.4,0.2"/>
<path class="st0" d="M103.5,99.9l0.3,0.1"/>
<path class="st0" d="M163.1,120.8l-0.4-0.1"/>
<path class="st0" d="M163,123.9l0.1-3.1"/>
<path class="st0" d="M45.5,77.9c-0.7,1.5-0.5,3.2,0.7,4.8c1.2,1.6,3.3,2.9,4.8,3.5"/>
<path class="st0" d="M34.6,98.7c-0.6-1-1.4-1.4-2.1-1.3"/>
<path class="st0" d="M42.4,75.5c1.1-0.2,2.2-1,2.7-1.7c0.8-0.9,0.8-1.7,0-3.2c-0.8-1.5-2.2-3.8-3.5-4.8"/>
<path class="st0" d="M27.9,34.8c0.7,1.4,1.9,2.8,3.2,3.4l0.3,0.1"/>
<path class="st0" d="M59.1,99.6c-0.7-1-1.4-1.5-2.4-1.3"/>
<path class="st0" d="M41.2,65.4c-0.9,0.8-1.6,2.2-1.9,3c-0.4,1-0.3,1.4,0.6,2.6c0.9,1.2,2.5,3.3,4.1,3.8"/>
<path class="st0" d="M72.9,64.8c0.3-0.1,0.6-0.4,0.7-1.2c0.4-1.6,0.3-5.1-0.9-7.1c-1.2-2.1-3.6-2.7-5-2.6"/>
<path class="st0" d="M47.4,97.7c-1.2-1-2.9-1.5-3.9-1.5l-0.4,0"/>
<path class="st0" d="M74.3,109.3c-0.7-2.3-1.9-2.7-2.7-2.8l-0.3,0"/>
<path class="st0" d="M31.3,76.7c0.2,0,0.4-0.3,0.7-0.8l2.4-4.3c0.6-1.3,0.5-1.7-0.7-3c-1.2-1.3-3.4-3.4-4.8-3.7l-0.6,0"/>
<path class="st0" d="M63.3,84.3c-0.6,1-1,2.7-0.9,4.3c0,1.6,0.5,3.1,1.5,4.4c1,1.2,2.5,2.3,4.2,1.9"/>
<path class="st0" d="M66.2,84c-0.5,1-0.8,2.6-0.8,4c0,1.6,0.5,3.1,1.5,4.4c0.7,0.8,1.6,1.6,2.6,1.9"/>
<path class="st0" d="M30,65.3c-0.3,0.5-0.4,1.2-0.5,1.8c-0.2,1.6,0.1,3.4,1,5c0.6,1.1,1.4,2,2.1,2.8"/>
<path class="st0" d="M69.6,54.1c-0.2,0.5,0,1.2,0.4,2.2c0.8,1.8,2.5,4.5,3.8,6.2"/>
<path class="st0" d="M64.9,41.2c-0.2,0.6,0.2,1.6,1.1,3c0.7,1,1.3,1.7,1.9,2.2"/>
<path class="st0" d="M27.6,48.6c-0.1,1.9,0.8,5.4,1.4,7.3l0.2,0.6"/>
<path class="st0" d="M54.4,96c0-2.2-1.6-5.1-2.7-6.4c-0.5-0.6-1-0.9-1.3-0.9"/>
<path class="st0" d="M62,55.4c0.7-0.1,1.7-0.5,2.3-1c0.7-0.6,1.1-1.5,1.2-2.3c0.1-0.8,0.1-1.6-1-3.6c-1.1-2-3.1-5.1-4.7-6.8"/>
<path class="st0" d="M60.7,109.4c-1-0.9-2.1-1.1-2.9-0.9"/>
<path class="st0" d="M36.1,89.5c0.1,1.6,0.6,3.5,1.5,4.7c0.9,1.2,2.1,1.7,3,1.7l0.3,0"/>
<path class="st0" d="M59.2,41.1c-0.1,0.9,0,2.2,0.4,3.9c0.7,2.5,2.1,5.9,3,7.8c0.5,1,0.8,1.6,1.2,1.9"/>
<path class="st0" d="M24.5,45.8c0.7-0.1,1.2-0.4,1.7-1.1c0.7-1,1.1-2.8,0.6-4.5c-0.4-1.6-1.6-3-2.9-2.8"/>
<path class="st0" d="M39,88.9c0.1,1.6,0.6,3.5,1.5,4.7l1.2,1.1"/>
<path class="st0" d="M24,93.9c0.6-0.3,0.9-1,0.7-2.2c-0.1-1.2-0.7-2.8-1.4-3.8c-0.4-0.6-0.8-1-1.2-0.9"/>
<path class="st0" d="M49.8,87l0.8-0.4c0.5-0.4,0.7-1.1,0.7-2.1c0-1-0.2-2.4-1-4.2c-0.8-1.7-2.3-3.7-3.8-4.1l-1.2,0"/>
<path class="st0" d="M65.1,41.2c-1-0.2-1.7-0.3-2.3-0.3"/>
<path class="st0" d="M30.8,96.7c0-1.1-0.4-1.9-1.4-2.4c-0.9-0.6-2.4-1-3.2-0.9"/>
<path class="st0" d="M47.6,69.1c1-0.2,2-1.1,2.6-2.1c0.8-1.3,0.8-2.7,0.6-3.9c-0.2-1.2-0.6-2.1-1.2-2.8c-0.6-0.6-1.3-1-2.4-0.9"/>
<path class="st0" d="M59.7,86.7c1.6-0.3,2-2.1,1.3-3.9c-0.7-1.8-2.6-3.8-4.3-4.1l-1.2,0"/>
<path class="st0" d="M29.1,100l0.4-0.2c0.8-0.5,1.2-2,1.2-3.2"/>
<path class="st0" d="M31.6,88.5l-0.6,0.3c-0.7,0.7-0.7,2.8-0.4,4.2c0.2,1.4,0.7,2.1,1.4,2.7c0.7,0.6,1.7,1,2.6,0.9"/>
<path class="st0" d="M37.7,51.5c1-0.4,1.6-1.4,1.4-3c-0.1-1.6-1-3.9-2-5.4c-0.7-1-1.5-1.6-2.1-1.5"/>
<path class="st0" d="M55.4,67.3c0.5,1.3,1.5,2.8,2.4,3.7"/>
<path class="st0" d="M48.5,59.5c-0.8,0.4-1.6,1-2.2,1.5c-0.9,0.9-1,1.6-0.4,3.1"/>
<path class="st0" d="M34.5,90c-0.9-1-2-1.6-2.8-1.4"/>
<path class="st0" d="M34.4,53l-0.2,0"/>
<path class="st0" d="M63.5,81.7c0.5-0.1,0.8-0.5,1.1-1.3c0.5-1.4,0.7-3.9-0.3-5.6c-0.9-1.7-3-2.6-4.4-2.5"/>
<path class="st0" d="M51.4,100.9l0.7-0.5c0.8-0.7,2.3-2.2,2.3-4.4"/>
<path class="st0" d="M47.1,105.9c-0.9-1.1-2.5-2.1-3.5-2.1l-0.2,0"/>
<path class="st0" d="M42.7,23.4c0-0.3-1-0.4-2.7-0.5c-1.9-0.1-4.5,0.1-4.8,0.4"/>
<path class="st0" d="M55.7,47.7L55.1,49c-0.5,1.6,0,3.2,1.4,4.2l1,0.5"/>
<path class="st0" d="M35,102.6l0.3-0.1c0.7-0.5,0.1-2.6-0.7-3.8"/>
<path class="st0" d="M52.9,25.5c0,0.3,1.2,0.7,3.2,0.9c2.1,0.2,5,0.2,6.6,0c1.1-0.1,1.6-0.3,1.6-0.5"/>
<path class="st0" d="M35.1,23.3c0.1,0.3,2,0.7,3.8,0.7c1.9,0.1,3.5-0.3,3.7-0.6"/>
<path class="st0" d="M114.7,25.3c0-0.3-1.8-0.7-3.8-0.9"/>
<path class="st0" d="M103,24.7c0,0.3,0.6,0.8,1.6,1.1c1,0.3,2.4,0.4,4.6,0.3c2.2-0.1,5.1-0.4,5.5-0.7"/>
<path class="st0" d="M108.8,21.4c-0.2-0.2-0.9-0.4-2.9-0.5l-7.2-0.3c-2.1,0-3.2,0-3.9,0.3"/>
<path class="st0" d="M94.2,21.3c0,0.2,0.3,0.4,1.1,0.5c1.5,0.3,4.9,0.4,7.4,0.4c2.5,0,4-0.2,5-0.3c0.8-0.1,1.2-0.3,1.2-0.4"/>
<path class="st0" d="M74.6,23c0,0.4,1.6,0.9,3.1,1.2c1.5,0.3,2.8,0.4,4,0.4l3.4-0.1c1.2-0.1,2.5-0.3,3.2-0.7l0.5-0.5"/>
<path class="st0" d="M129.2,22.4c0,0.1,0.3,0.2,1,0.3l4.5,0.3l3.8-0.1c1-0.1,1.6-0.2,2-0.5c0.2-0.2,0.4-0.5,0.4-0.8"/>
<path class="st0" d="M121.8,18.4l-0.5-0.2c-1.3-0.3-5.7-0.4-8.4-0.3"/>
<path class="st0" d="M109,18.6c0,0.3,1.1,0.5,3,0.6c1.9,0.1,4.6,0.1,6.8-0.1c1.7-0.1,3.1-0.4,3.1-0.6"/>
<path class="st0" d="M122,25.2c0,0.3,0.6,0.3,2.4,0.3c2,0,5.6-0.1,7.4-0.4c1.2-0.2,1.8-0.6,1.8-0.9"/>
<path class="st0" d="M99.9,19.8l0.3,0.2c0.9,0.3,4.1,0.4,6.1,0.3c1.9-0.1,2.8-0.5,2.8-0.8"/>
<path class="st0" d="M111.5,29.1l-2-0.1"/>
<path class="st0" d="M93.4,30.3c0,0.3,1.5,0.6,4.8,0.4c3.5-0.2,8.8-0.9,11.4-1.3l1.9-0.3"/>
<path class="st0" d="M111.2,27c0,0.5,1.1,1,1.7,1.3c0.8,0.4,0.9,0.4,2.7,0.2c1.8-0.2,5.1-0.7,6.4-1.2c0.5-0.2,0.7-0.4,0.7-0.6"/>
<path class="st0" d="M121.4,19.5c0,0.2,0.7,0.4,2.1,0.6c1.9,0.2,5.2,0.2,7.7,0.2c2,0,3.5-0.2,3.5-0.4"/>
<path class="st0" d="M102.8,23.4c0-0.3-0.3-0.5-1.4-0.7c-1.6-0.3-5-0.4-7.1-0.4c-2,0-2.8,0.1-3.2,0.4c-0.2,0.6,0.1,0.9,1.2,1
	c1.7,0.3,5.3,0.4,7.4,0.4c2,0,2.6-0.1,2.9-0.4L102.8,23.4z"/>
<path class="st0" d="M41.5,24.6c0,0.3,1.4,0.6,3.1,0.7c1.8,0.1,3.8,0,5.5-0.2"/>
<path class="st0" d="M141.3,23.1l0.4,0.2c0.9,0.3,3.5,0.7,6.3,0.7c2.8,0,5.9-0.4,6.9-0.7l0.4-0.2"/>
<path class="st0" d="M106.2,16.6l-0.8-0.1l-5.6-0.4"/>
<path class="st0" d="M93.1,17.2l0.2,0.4c0.3,0.3,0.9,0.3,3.2,0.1l8.1-0.8l1.6-0.2"/>
<path class="st0" d="M120.9,21.2c0.9,0.3,3.9,0.7,6,0.6c1.7-0.1,2.8-0.4,2.8-0.8"/>
<path class="st0" d="M105,22.7c-0.4,0.2-0.6,0.4-0.6,0.5"/>
<path class="st0" d="M101.5,18.5c1.9,0.1,3.6,0.1,5-0.1c1.4-0.2,2.6-0.6,2.7-0.9"/>
<path class="st0" d="M53.3,26.7l-0.2,0.2"/>
<path class="st0" d="M70.5,29.3c-0.6-0.4-3.3-0.7-5.5-0.7c-1.9,0-3.4,0.1-3.4,0.4"/>
<path class="st0" d="M132.2,25.6c-2.2,0-5.7,0-7.1,0.3c-0.5,0.1-0.7,0.2-0.7,0.4"/>
<path class="st0" d="M88.6,24.9c0.8,0.4,3.9,1,6.6,1.2c2.8,0.2,5.2,0.1,6.1-0.3l0.4-0.4"/>
<path class="st0" d="M85.4,14.9c0,0.2,0.8,0.5,2,0.7c1.3,0.2,3.1,0.4,5.1,0.4c2.1,0,4.4-0.1,5.5-0.3l0.6-0.3"/>
<path class="st0" d="M103.1,26.4L97,26.8c-1.7,0.2-2.7,0.5-2.7,0.8"/>
<path class="st0" d="M110.9,24.4c-2.2-0.2-4.5-0.2-6-0.2c-1.4,0-1.9,0.1-1.9,0.4"/>
<path class="st0" d="M140.7,20.9c-0.5-0.4-1.7-0.6-3.1-0.6c-1.4,0-3.1,0.1-4.6,0.5c-1.5,0.4-2.8,1-3.4,1.3l-0.3,0.3"/>
<path class="st0" d="M63.9,20.1c0.3,0.2,0.4,0.2,2.6,0.2l8.5-0.1c1.9,0,2.4-0.1,2.4-0.3"/>
<path class="st0" d="M113,17.9c-2.7,0.1-3.9,0.5-4,0.7"/>
<path class="st0" d="M128.8,23.1c-1.7,0-3.2,0.2-4.5,0.6c-1.2,0.4-2.1,1.1-2.3,1.4"/>
<path class="st0" d="M109.5,29c-2.6,0-7.7,0-11.1,0.2c-3.3,0.2-4.9,0.7-5,1.1"/>
<path class="st0" d="M92.6,26.5c-1-0.4-4.1-1-6.1-1.3c-2-0.3-3.1-0.2-4.1,0.1c-1,0.3-1.9,1-2,1.4"/>
<path class="st0" d="M121.9,26c-0.6-0.3-1.2-0.3-1.9-0.4l-3.2,0.1c-1.8,0.1-4.7,0.4-5.5,0.9l-0.2,0.3"/>
<path class="st0" d="M124.9,18.4c-1,0.2-2.7,0.5-3.3,0.9l-0.2,0.2"/>
<path class="st0" d="M94.3,27.6c0.1,0.3,1.3,0.7,4.4,1c3.2,0.2,8.3,0.2,10.1-0.2c0.6-0.1,0.8-0.3,0.8-0.5c0-0.4-1-0.8-1.9-1.1
	c-1.4-0.4-2.8-0.5-4.7-0.5"/>
<path class="st0" d="M32.5,51.7c0.3,0,0.4-0.6,0.4-1.9l0-7.9c0-2,0-2-0.8-1.9l-0.4,0.1"/>
<path class="st0" d="M32.5,97.4l-0.5,0.2c-0.7,0.6-1.2,2.1-0.4,3.3c0.7,1.1,2.4,1.9,3.3,1.7"/>
<path class="st0" d="M50.3,88.8c-0.4,0.1-0.7,0.5-0.9,1.2c-0.5,1.4-0.7,4.1-0.4,6.1c0.3,2,1.2,3.4,1.7,4.2c0.3,0.4,0.5,0.6,0.8,0.6"
	/>
<path class="st0" d="M26.2,93.4c-0.8,0.2-1.1,0.9-1,2c0.1,1.1,0.6,2.5,1.5,3.5c0.7,0.8,1.7,1.3,2.5,1.2"/>
<path class="st0" d="M64.4,17.3c0,0.3,1.6,0.6,3.5,0.7c2.2,0.1,4.8,0.1,6.5,0l2.6-0.3l0.2-0.1"/>
<path class="st0" d="M51.5,21.2l0.4,0.2c0.7,0.2,2.4,0.6,4.4,0.7c2,0.1,4.2,0.1,5.4-0.2c1.2-0.3,1.4-0.8,1.4-1.1"/>
<path class="st0" d="M32.8,40.2l-1,0.7"/>
<path class="st0" d="M62,23.8l-0.9,0"/>
<path class="st0" d="M49.6,20.1c0,0.3,1,0.5,3.1,0.5c2.3,0,6.1-0.1,7.7-0.4c0.7-0.1,1-0.2,1-0.4"/>
<path class="st0" d="M68.6,116.7c0.3-0.1,0.6-0.3,0.9-0.7c0.8-1.5,0.6-5.2-0.8-7.3"/>
<path class="st0" d="M34.2,98.2c-0.1,0.5-0.1,1.1,0.1,1.7"/>
<path class="st0" d="M79.3,17.5l1.8,0.2l8.6,0.2c2.2,0,2.3,0,2.3-0.2"/>
<path class="st0" d="M135.1,24.7l0.1,0.4c0.3,0.4,1.2,0.5,3.3,0.4c2.1-0.1,5.2-0.6,5.5-1"/>
<path class="st0" d="M63.1,106.2c-1.1,0.2-1.2,1.1-0.7,2.7c0.5,1.7,1.6,4.4,3.1,6.1c1.1,1.2,2.3,2,3.2,1.8"/>
<path class="st0" d="M91.9,17.8l-3.5,0l-1.3,0"/>
<path class="st0" d="M88.4,24.7l0.2,0.2"/>
<path class="st0" d="M65.1,106.3c-0.1,0.4-0.1,1.1,0.2,1.9c0.5,1.7,1.6,4.4,3.1,6.1"/>
<path class="st0" d="M69.3,105.5c0.6-0.1,0.7-0.6,0.5-1.6c-0.3-1.4-1.1-3.8-2.3-5.6c-1.2-1.8-2.8-2.9-4.2-2.7"/>
<path class="st0" d="M52.1,90.2c-0.4,1.5-0.5,3.7-0.3,5.4c0.2,1.7,0.9,2.9,1.4,3.7"/>
<path class="st0" d="M101.8,25.5c0-0.3-0.7-0.6-2.2-0.8c-2.1-0.3-5.6-0.4-8.1-0.4c-1.9,0-3.2,0.2-3.2,0.4"/>
<path class="st0" d="M71.2,52.9c0.6-0.1,1.1-0.3,1.5-0.8c1.2-1.4,1.1-4.9,0.6-6.7c-0.3-1.2-0.9-1.8-1.5-1.7"/>
<path class="st0" d="M124.4,26.3c0,0.3,0.8,0.5,2.3,0.5c2.2,0,5.9-0.4,7.3-0.7l0.6-0.2"/>
<path class="st0" d="M40.7,104.8c0.9-0.3,1.3-1.4,1.2-2.8"/>
<path class="st0" d="M63.2,95.6c-1.3,0.3-2.2,1.7-2.4,3.3c-0.2,1.7,0.5,3.6,2.1,4.8"/>
<path class="st0" d="M61.6,29l0.1,0.2c0.6,0.4,3.5,1.1,5.8,1.1c1.9,0,3.2-0.4,3.2-0.7"/>
<path class="st0" d="M109.4,20.6c0,0.3,0.7,0.4,2.2,0.5l5.6-0.2c1.7-0.2,2.7-0.4,2.9-0.7"/>
<path class="st0" d="M37.4,96.6c-0.8,0.2-1.4,0.8-1.4,2.1c0,1.3,0.6,3.3,1.6,4.6c0.9,1.2,2.2,1.8,3.1,1.6"/>
<path class="st0" d="M53,23.5c0,0.3,1.3,0.6,2.6,0.7c1.3,0.1,2.7,0.1,4.7-0.1c2.1-0.2,4.8-0.7,5.4-1.1"/>
<path class="st0" d="M109.1,17.5c0-0.3-1.1-0.6-3.4-0.5c-2.4,0.1-6.3,0.5-7.3,0.8L98.2,18"/>
<path class="st0" d="M39.1,96.8L38.9,98c0,1.3,0.5,3.1,1.4,4.4"/>
<path class="st0" d="M30.2,39c0.7-0.1,1.2-0.4,1.6-0.9c0.7-1,0.5-3-1-4.3c-1.4-1.2-3.8-1.9-5.1-1.7"/>
<path class="st0" d="M73,75.5l0.4-0.2c1-0.9,0.9-4.7,0.5-6.7c-0.3-1.3-0.7-1.8-1.3-1.7"/>
<path class="st0" d="M28.1,93.6L28,94.8c0.1,0.9,0.4,1.9,1,2.8"/>
<path class="st0" d="M33.5,89.1c-0.3,1-0.2,2.3,0,3.4c0.2,1.4,0.7,2.1,1.4,2.7l1,0.6"/>
<path class="st0" d="M65.4,72.5c0.5-0.1,0.5-0.7,0-2c-0.7-1.9-2.5-5.2-3.8-6.3"/>
<path class="st0" d="M104.4,23.2c0,0.2,0.3,0.4,0.8,0.5c1.1,0.2,3.5,0.2,5.3,0.1c1.6-0.1,2.7-0.4,2.7-0.6"/>
<path class="st0" d="M90.4,19.7c0.2,0.4,1.8,0.5,3.2,0.6c1.4,0,2.4,0,3.6-0.3c1-0.2,2-0.6,2-0.9"/>
<path class="st0" d="M52.6,78.3c1.1-0.2,2.1-1.1,2.7-1.7c0.7-0.9,0.7-1.5-0.1-2.9c-0.8-1.4-2.3-3.5-3.8-4l-1.1-0.1"/>
<path class="st0" d="M99.1,18.9c-0.5-0.4-2.6-0.6-3.9-0.7"/>
<path class="st0" d="M51.7,69.9l-1,1.1c-0.7,1-0.6,1.7,0.1,3.1"/>
<path class="st0" d="M27.6,32.2c-0.4,0.6-0.2,1.6,0.4,2.6"/>
<path class="st0" d="M113.6,24.1c0.4,0.4,2.4,0.8,3.7,1c1.4,0.2,2.1,0.2,3-0.1c0.6-0.2,1.3-0.7,1.3-1"/>
<path class="st0" d="M46.7,25.9c0.1,0.3,2.3,0.8,4,1c1.6,0.2,2.6,0,2.6-0.3"/>
<path class="st0" d="M22.9,75.3l0.2-0.1c0.9-0.3,2.1-1.3,2.5-2.7c0.4-1.4,0.1-3.2-0.9-4.4c-0.7-0.8-1.7-1.4-2.5-1.2"/>
<path class="st0" d="M129.8,21.1l-0.3-0.3c-1-0.3-4.2-0.4-6.4-0.3c-1.6,0.1-2.5,0.2-2.5,0.4"/>
<path class="st0" d="M59.6,44.9l0.7-0.2l1.4-0.7"/>
<path class="st0" d="M50.7,47.1c1.3-0.2,2.7-1.6,3.4-3.2c0.7-1.6,0.8-3.3-0.8-4.5c-1.6-1.3-4.9-2.1-6.5-2.4l-1.1-0.1"/>
<path class="st0" d="M59.3,107l0.7-0.3c0.9-0.5,1.1-1.3,0.8-2.7c-0.3-1.4-0.9-3.3-1.7-4.5"/>
<path class="st0" d="M62.1,114.2l0.4-0.2c0.9-0.7-0.3-3.4-1.7-4.6"/>
<path class="st0" d="M64.9,41.6l0.4-0.4"/>
<path class="st0" d="M48.6,77.8c-0.1,1.2,0.3,2.2,1,2.8l0.8,0.5"/>
<path class="st0" d="M24.7,98.4l0.3-0.1c0.4-0.4-0.1-1.9-0.8-2.7"/>
<path class="st0" d="M36.2,62.7l-0.6,0.4c-0.5,0.4-0.7,0.8-0.3,1.8l0.2,0.4"/>
<path class="st0" d="M73.3,45.6c-0.9,0.9-0.9,1.4,0.2,2.3"/>
<path class="st0" d="M22.5,94.8L22.1,95c-0.4,0.4-0.4,1.5,0.3,2.3c0.6,0.7,1.7,1.2,2.2,1.1"/>
<path class="st0" d="M58,98.6c-0.9,0.7-1.7,1.8-1.8,3c-0.1,1.6,1.2,3.4,2.6,4.3l1.6,0.6"/>
<path class="st0" d="M28.8,85.8l0.4,0.7"/>
<path class="st0" d="M52.8,45.9l-1,0.1"/>
<path class="st0" d="M74.1,88.8c0.2,0,0.2-0.5,0.2-1.3c0-1.7,0-5-1.1-7.7c-1-2.7-3-4.7-4.2-5.6"/>
<path class="st0" d="M73.5,49.5l-1-0.1"/>
<path class="st0" d="M49.8,63.6c-0.3-0.1-0.8,0.2-1.7,1.1l-1.3,1.3"/>
<path class="st0" d="M67.5,73.3l-0.3,0.1c-0.3,0.2-0.6,0.6-0.8,2c-0.2,1.5-0.4,4,0.8,6.4c1.3,2.4,4,4.8,5.5,6
	c0.7,0.6,1.1,0.9,1.3,0.9"/>
<path class="st0" d="M47.7,104.2c1.1-0.2,1.8-1.5,1.8-2.7c0-1.4-0.9-2.8-2.1-3.7"/>
<path class="st0" d="M57.8,108.5l-0.9,0.5c-0.8,0.7-0.9,2,0.5,3.3c1.2,1.1,3.6,2.2,4.7,1.9"/>
<path class="st0" d="M36.9,42.7c-0.4,1.8-0.3,5,0.4,6.7c0.3,0.8,0.7,1.2,1.2,1.5"/>
<path class="st0" d="M51.1,82.7c-0.7-0.1-1.4,0-2.1,0.5l-1.2,1.1"/>
<path class="st0" d="M46.1,87.4c-0.3,1.2,0,2.2,1.2,2.7"/>
<path class="st0" d="M69.5,74.5l-0.1,0.4c-0.2,1.4-0.4,3.9,0.8,6.4c0.9,1.7,2.6,3.4,4,4.7"/>
<path class="st0" d="M46.6,89.6l0.9,0"/>
<path class="st0" d="M44.1,43l-0.8-0.1l-1,0"/>
<path class="st0" d="M39.9,84.2c0.8-0.2,1.1-0.6,1.1-1.7c0.1-1.1-0.2-2.9-1.1-4.8"/>
<path class="st0" d="M43.2,96.3c-0.7,0.2-1,0.7-1,1.6c0,1.1,0.5,2.7,1.5,4c1,1.3,2.6,2.4,3.9,2.3l0.2,0"/>
<path class="st0" d="M37.9,44.3l-1.2,0.7"/>
<path class="st0" d="M127.6,109.1c-1-0.4-0.7-1.8,0.1-3"/>
<path class="st0" d="M129.8,104.1c0.3,0.9,0.5,2-0.1,2.9c-0.5,0.7-1.6,1.2-2.7,1.4"/>
<path class="st0" d="M38,50.6l0.7,0.3"/>
<path class="st0" d="M37.2,74.1c-0.6,0.8-0.9,2-0.8,3.1c0.2,2.1,1.7,4.2,3.1,5.3l1.4,0.8"/>
<path class="st0" d="M136.5,65.6c1.4,0.9,2.3,2.7,1.6,3.8"/>
<path class="st0" d="M40.2,57.6c-0.2,0.8-0.1,1.6,0.4,2.3l0.6,0.6"/>
<path class="st0" d="M59.4,57.5c-1.1-0.3-2.3-0.3-3.4,0"/>
<path class="st0" d="M123.3,104.1c-0.8-0.3-1.5-0.7-1.9-1.2c-0.9-1.1-0.3-2.7,1-3.8"/>
<path class="st0" d="M143.4,59.6l0.5,1c0.4,1.8-0.8,5.3-1.6,7.1l-0.4,0.9"/>
<path class="st0" d="M143.2,70.5l-0.8-1.1c-0.6-1.1-1.7-3.1-1.9-5c-0.2-1.9,0.4-3.6,1.8-4.4c0.7-0.4,1.6-0.6,2.4-0.4"/>
<path class="st0" d="M125.1,76.7c1.2,0.3,1.9,1.3,1.9,2.8c0,1.8-1.2,4.3-2.6,5.9c-1,1.2-2.1,1.9-3,1.6"/>
<path class="st0" d="M123.8,76.6c0.5,0.5,0.9,1.2,0.8,2.2c0,1.8-1.2,4.3-2.6,5.9c-0.5,0.7-1.1,1.2-1.7,1.4"/>
<path class="st0" d="M121.5,87l-0.8-0.6c-1-1.3-1.6-4.6-0.8-6.7"/>
<path class="st0" d="M140.9,77.3c0.8,1,1.2,2.6,1.1,3.8c-0.1,1.8-1.1,2.8-2.7,2.9l-1.5-0.1"/>
<path class="st0" d="M139,84.3l-2.1-0.9"/>
<path class="st0" d="M121.7,58.7c1.3,0.6,2.4,1.4,3.1,2.1c1.2,1.1,1.1,1.8,0.9,2.4"/>
<path class="st0" d="M117.2,66.3c-1.8-0.5-1.8-2.1-0.9-3.8c0.9-1.8,2.8-3.7,5-3.9l1.5,0.2"/>
<path class="st0" d="M106,100c0.4,0.2,0.2,0.6-0.5,1.7c-1.1,1.7-3.2,5-4.7,6.7c-1.1,1.3-1.9,1.7-2.7,1.4"/>
<path class="st0" d="M103.8,99.9l-0.6,1c-1.1,1.7-3.2,4.9-4.7,6.6c-0.6,0.7-1.1,1.1-1.6,1.3"/>
<path class="st0" d="M98.1,109.7l-0.8-0.6c-1.1-1.1-2.3-3.3-2.6-5.1c-0.2-1.8,0.6-3,2.8-3.6"/>
<path class="st0" d="M114.1,107.1c0.5,1,0.6,2.7-0.8,3.9c-1.2,1.1-3.5,1.9-5.4,2.4"/>
<path class="st0" d="M107.1,114.8c-0.2-0.1,0-0.5,0.7-1.3c1.1-1.4,3.3-4.2,5-5.6c1.2-1,2.1-1.3,2.7-1.1"/>
<path class="st0" d="M102.4,69.4c1.6,0.8,2.9,2.1,2.5,3.5c-0.6,1.8-4.3,3.8-6.7,4.6"/>
<path class="st0" d="M97.1,78.7l-0.4-0.1c-0.6-0.3-0.8-0.6-0.4-1.9c0.3-1.3,1.2-3.6,2.3-5.2c1.1-1.6,2.6-2.4,4.6-2l0.4,0.1"/>
<path class="st0" d="M142.9,100.6c-1.5-0.5-2.3-2.2-2.7-3.3c-0.4-1.2-0.3-1.6-0.2-1.9c0.1-0.3,0.2-0.4,1.8-0.8
	c1.6-0.4,4.6-1.1,6.3-1l0.9,0.1"/>
<path class="st0" d="M119.1,40.1c1.2,1.2,2.8,3.5,2.9,5.5"/>
<path class="st0" d="M119.4,50.3c-1.2-0.3-2.2-1.2-2.5-2.6c-0.4-2,0.7-5.2,1.5-6.8c0.5-1,1-1.4,1.6-1.3"/>
<path class="st0" d="M94.9,91.9c-0.9-0.3-1.5-1.3-1.5-2.8c0-2.2,1.2-5.8,2.3-7.4c0.6-1,1.2-1.3,1.8-1.1"/>
<path class="st0" d="M132,46.1l0.7,0.7c1.2,1.3,2.5,3.8,3.1,5.2c0.6,1.4,0.6,1.6-0.8,2.5"/>
<path class="st0" d="M132.5,56.9l-0.7-0.4c-1.3-1.2-1.2-5.6-1-7.8c0.2-2.3,0.5-2.5,1.3-2.6l1.1,0"/>
<path class="st0" d="M155.3,62c0.2,1.9,0,4.7-0.5,6.3c-0.3,0.9-0.7,1.5-1.2,1.7"/>
<path class="st0" d="M154.4,71c-0.7-0.2-1-0.7-0.8-2.3c0.2-1.8,0.9-4.8,1.7-6.6c0.5-1.1,1.1-1.7,1.5-1.6"/>
<path class="st0" d="M128.6,65.5l0.8,1c0.8,1.3,1.4,3.3,1.3,5.1"/>
<path class="st0" d="M129.1,77.4l-0.4-0.2c-0.9-0.5-2-1.5-2.2-3.5c-0.2-1.9,0.6-4.8,1.2-6.4c0.6-1.6,1-2.1,1.7-2.1l0.3,0.1"/>
<path class="st0" d="M147.5,100.9c0.3,0.5,0.1,1.2-0.6,1.8c-1,0.8-2.9,1.5-4.5,1.7"/>
<path class="st0" d="M143,105.1c-1-0.3-0.6-1.4,0.6-2.4"/>
<path class="st0" d="M99.4,59.3c0.6,0.3,1,0.8,1.3,1.4"/>
<path class="st0" d="M98.3,68.3l-0.5-0.2c-1.6-0.8-3.4-3.3-3.3-5.2c0.1-1.9,2-3.2,3.9-3.5c0.7-0.1,1.5-0.1,2.1,0.1"/>
<path class="st0" d="M137,36.6c0.9,0.7,0.9,1.9,0.2,3.2"/>
<path class="st0" d="M133.6,44.5c-0.5-0.1-0.8-0.4-1.1-1c-0.5-1.3-0.5-3.8,0.9-5.3c1.2-1.3,3.5-1.8,5-1.5"/>
<path class="st0" d="M145,41c-0.9-0.2-2-0.7-2.7-1.4c-0.9-1-1-2.4,0.3-3.4c1-0.7,3-1.1,4.3-0.9"/>
<path class="st0" d="M92.7,43.4l0.5,0.2"/>
<path class="st0" d="M88.6,50l-0.2-0.1c-1.3-0.6-1.3-3.4-0.1-5c1-1.4,3-1.8,4.3-1.5"/>
<path class="st0" d="M153.3,41.6l0.8,0.3c1.5,0.7,1.5,1.7,0.2,3.2"/>
<path class="st0" d="M149.5,49.9c-1.1-0.2-1.8-1.1-2.2-2.2c-0.5-1.5-0.4-3.4-0.1-4.6c0.3-1.2,0.9-1.6,2.8-1.7c1.2,0,3,0.1,4.5,0.4"
	/>
<path class="st0" d="M117.3,93l0.2,0.1c1.7,0.7,2.4,3,2.4,4.9"/>
<path class="st0" d="M116,92.8c1.1,1,1.6,2.8,1.7,4.4"/>
<path class="st0" d="M114.2,105l-1.1-0.6c-1.4-0.9-3.2-2.9-4.1-4c-0.9-1-0.9-1.1-0.5-2c0.4-0.9,1.1-2.7,2.9-4
	c1.7-1.2,4.2-2.1,5.9-1.5"/>
<path class="st0" d="M116.1,50.7c1.4,0.3,2.8,1.1,3.6,2c0.9,1.1,0.8,2.2-0.2,3.8c-1,1.6-2.9,3.5-4.7,3.8"/>
<path class="st0" d="M114.9,50.5c1,0.4,1.8,1,2.3,1.6c0.9,1.1,0.8,2.2-0.2,3.8c-1,1.6-2.9,3.5-4.7,3.8"/>
<path class="st0" d="M113.5,60.2c-1.3-0.3-2.5-1.5-3-2.8c-0.7-1.7-0.3-3.7,0.7-5c0.9-1.3,2.4-2,4-1.8l0.9,0.1"/>
<path class="st0" d="M99.1,111.4c1.1,0.7,2.3,1.7,3,2.3c0.8,0.8,0.9,0.9-1.4,1.5c-1.6,0.4-4.4,1.2-6.3,1.3"/>
<path class="st0" d="M94.9,117.2c-1.3-0.7,0.6-3.2,2-4.6"/>
<path class="st0" d="M153.9,85c0.8,1.5,0.7,4.6-0.3,6.3c-0.6,1.2-1.7,1.7-2.6,1.9"/>
<path class="st0" d="M151.8,93.8c-0.9-0.3-1.2-1.1-1-2.6c0.1-1.6,0.7-4.1,1.8-5.4c0.7-0.9,1.7-1.3,2.5-1"/>
<path class="st0" d="M105.3,48.1c1.6,0.4,2.9,1.9,3.4,3.7c0.5,1.8,0,3.8-0.8,5.1"/>
<path class="st0" d="M104.1,48c1,0.7,1.9,1.9,2.2,3.1c0.5,1.8,0,3.7-0.7,5.1"/>
<path class="st0" d="M103.1,58.7c-1.2-0.3-2.4-1.1-3-2.3c-0.8-1.7-0.5-4.3,0.6-6.1c1.1-1.8,2.9-2.6,4.5-2.3"/>
<path class="st0" d="M143.9,58.1l-1.4-0.5c-1.4-0.7-2-1.9-2.3-2.6c-0.3-0.7-0.2-0.9,0.8-1.8c1-0.9,3-2.6,4.6-2.8l1,0"/>
<path class="st0" d="M129.9,79.1c0.7,0.5,1.5,1.2,1.9,1.8c0.6,0.8,0.6,1.4,0.1,2.6"/>
<path class="st0" d="M129,87.9c-1-0.3-1.8-1.1-2.1-2.1c-0.4-1.7,0.8-4.3,1.7-5.6c0.8-1.1,1.5-1.4,2.2-1.2"/>
<path class="st0" d="M147.7,81.7c-0.5-0.1-0.9-0.4-1.3-0.9c-1.2-1.3-2.1-4-2.5-5.7c-0.4-1.7-0.2-2.4,0-2.9c0.2-0.5,0.5-0.7,1.9-0.9
	c1.4-0.2,3.9-0.3,5.4-0.1l0.6,0.1"/>
<path class="st0" d="M137,85.2c0.5,0.3,0.8,0.8,1.1,1.3c0.7,1.7-0.1,4.2-0.5,5.6l-0.4,1"/>
<path class="st0" d="M102.5,41.7c1,0.7,0.5,2.2-0.4,3.3"/>
<path class="st0" d="M98.3,47.8c-0.9-0.2-1.6-0.7-2-1.3c-0.7-1-0.9-2.5,0.9-3.5c1.7-0.9,5-1.5,6.7-1.1"/>
<path class="st0" d="M89.6,103.2c-0.4-0.2-0.8-0.5-1-1c-0.9-1.7-0.9-5.6-0.3-7.8c0.6-2.2,1.9-2.6,3.2-2.3"/>
<path class="st0" d="M104.9,86.9l-1.2-0.8c-1.2-1.2-2.7-3.6-1.6-5.8c1.2-2.2,5-4.2,7-5.1c1.4-0.7,2-0.9,2.3-0.8"/>
<path class="st0" d="M155,49.1c0.7,1.5,0.6,4.7,0.1,6.7c-0.5,2.3-1.5,2.8-2.8,2.7"/>
<path class="st0" d="M153.6,58.9c-1-0.2-2.1-0.8-2.6-1.7c-0.7-1.2-0.6-3.1,0.8-5c1.2-1.8,3.4-3.6,4.7-3.4"/>
<path class="st0" d="M90.8,76.6c-0.8-0.3-1.6-0.9-2.1-1.9c-1.2-2.4-1.3-7.1-0.5-9.4c0.5-1.6,1.4-2.1,2.5-1.8"/>
<path class="st0" d="M123.8,67.6l0.7,0.3c1.5,1,0.7,3.8-0.7,5.7c-1.4,1.9-3.6,2.9-5.3,3"/>
<path class="st0" d="M122.4,67.5c1.2,1.1,0.5,3.8-0.9,5.6c-1.4,1.9-3.5,2.8-5.3,3"/>
<path class="st0" d="M116.4,76.5c-0.8-0.2-1.4-0.6-1.8-1c-0.8-0.7-1.1-1.5-0.9-2.7c0.2-1.2,1-2.8,3.3-4c2-1,5.1-1.7,6.9-1.2"/>
<path class="st0" d="M127.2,38.3c1.6,1,1.5,3.6,1.4,4.9"/>
<path class="st0" d="M128.1,45.6c-0.5-0.1-1.1-0.4-1.7-0.9c-1.5-1.1-3.2-3.6-2.5-5.1c0.6-1.2,2.8-1.7,4.5-1.4"/>
<path class="st0" d="M137.4,56.7c0.3,0.4,0.4,1.1,0.4,1.7c0,1.5-0.7,3.2-2.1,4.3c-1.3,1.1-3.4,1.5-4.9,1.4"/>
<path class="st0" d="M131.8,64.6c-0.8-0.2-1.4-0.6-1.7-1.1c-0.4-0.6-0.4-1.3-0.2-1.8c0.2-0.5,0.4-0.9,1.9-2c1.5-1.1,4.3-2.9,6-3.1"
	/>
<path class="st0" d="M154.6,73.4c0.5,1.8,0.4,5.2-0.5,7.1c-0.6,1.2-1.5,1.7-2.3,1.9"/>
<path class="st0" d="M152.4,83.2c-0.6-0.2-0.8-0.7-0.5-2.2c0.3-1.8,1.2-5.1,2.3-6.8c0.6-1,1.3-1.5,1.9-1.4"/>
<path class="st0" d="M108.7,103.1c1.3,0.5,2.1,2,2,3.7c-0.2,2.3-2.4,5.1-4.4,5.7"/>
<path class="st0" d="M107.5,103c0.7,0.7,1,1.8,0.9,2.9c-0.2,2.3-2.4,5-4.4,5.7"/>
<path class="st0" d="M104.5,112.5c-1.1-0.4-1.8-1.6-1.6-3.1c0.2-2.4,2.4-5.7,4.3-6.3c0.5-0.2,1.1-0.2,1.5,0"/>
<path class="st0" d="M104.4,89c0.9,0.9,1.6,2.4,1.7,3.9"/>
<path class="st0" d="M98.6,98.2l-0.3-0.1c-1.8-0.8-1.8-2.4-0.6-4.1c1.2-1.7,3.6-3.6,5.3-4.4c1.2-0.6,2-0.7,2.7-0.5"/>
<path class="st0" d="M140,51c-1.6-0.4-2.9-3-2.6-5c0.3-2,2-3.5,3.7-4c0.7-0.2,1.5-0.2,2.1-0.1"/>
<path class="st0" d="M153.6,95.1c0.8,1.2,0.7,3.7-0.1,5.1"/>
<path class="st0" d="M152.5,102.5l-0.2-0.1c-1.1-0.5-1.6-1.8-1.7-3.2c-0.1-1.3,0.3-2.6,1.4-3.5c0.8-0.6,2-1,3-0.7"/>
<path class="st0" d="M137.7,99.2c0.5,0.7,0.9,1.6,1,2.4c0.3,1.5,0,2.7-1.3,3.5c-0.9,0.6-2.2,1.1-3.4,1.1"/>
<path class="st0" d="M126.1,88.4l1.5,0.7c1,0.5,1,0.7,0.5,1.6c-0.5,0.9-1.5,2.7-3,3.8c-1,0.7-2.2,1.3-3.3,1.3"/>
<path class="st0" d="M122.8,96.5l-0.5-0.2c-1.4-0.8-2.1-3.1-2.3-4.5c-0.2-1.4,0.1-1.8,1-2.4"/>
<path class="st0" d="M112.9,40.3l0.3,0.3c1.2,1.3,0.1,4.4-1.1,6.3"/>
<path class="st0" d="M110.6,49.6l-0.2-0.1c-1.4-0.4-2.8-2-3.2-3.6c-0.5-1.6-0.1-3.4,1.9-4.5c1.5-0.8,3.7-1.3,5.3-1"/>
<path class="st0" d="M108.1,59.7c1.1,0.6,2.2,1.7,2.9,2.8"/>
<path class="st0" d="M111.2,72.4l-1.2-0.6c-1.4-0.9-4.1-2.6-5.1-4.6c-1-2-0.3-4.1,0.6-5.6c0.9-1.4,2.1-2.2,3.6-1.8"/>
<path class="st0" d="M140.1,72c-0.1,0.5-0.4,1.1-1.3,2.3c-1.2,1.5-3.5,3.8-5.2,4.4"/>
<path class="st0" d="M134.3,79.4c-0.9-0.3-1.4-1-1.5-1.9c-0.2-1.4,0.8-3,2.5-4c1.8-1,4.3-1.4,5.7-1.6l1.3,0"/>
<path class="st0" d="M149.5,59.3c0.6,0.4,1.2,1,1.5,2c0.5,1.8-0.2,4.9-1.8,6.4"/>
<path class="st0" d="M148.1,69.5c-0.6-0.2-1.1-0.5-1.3-1.2c-0.6-1.7,0.6-5.2,1.4-7.1c0.8-1.9,1.1-2.1,2.1-2l0.3,0.1"/>
<path class="st0" d="M92.4,78.6c0.1,0.3,0,0.9-0.2,1.8c-0.5,1.9-1.7,5.4-3,7.3l-1,1.2"/>
<path class="st0" d="M89.1,90.1c-0.4-0.1-0.7-0.5-0.9-1.2c-0.7-2-0.7-6.3,0.5-8.4c1.2-2.1,3.6-2,4.8-1.8"/>
<path class="st0" d="M121.9,104.9l0.9,0.7c1,1,0.6,2.5-0.7,3.5c-0.9,0.7-2.2,1.2-3.4,1.2"/>
<path class="st0" d="M119.6,110.9l-0.2-0.1c-1.3-0.7-1.7-2.6-1.5-4"/>
<path class="st0" d="M126.8,47.7l0.2,0.7c0.5,2.1,0.4,6.4,0.2,8.7"/>
<path class="st0" d="M128.4,60.2l-0.6-0.2c-1.3-0.6-3.8-2.3-5-3.7c-1.2-1.4-1.1-2.6-0.3-4.1c0.8-1.5,2.5-3.2,3.8-4.1
	c0.7-0.5,1.3-0.7,1.9-0.6"/>
<path class="st0" d="M89.3,118.6c-0.4-0.2-0.7-0.6-0.9-1.5c-0.5-2.1-0.6-6.7,0.3-9.3c0.7-2.3,2.2-2.9,3.5-2.4"/>
<path class="st0" d="M114.1,78.5l0.7,1.1c1,2,1.6,5.2,1.7,7.1c0.1,1.9-0.1,2.3-1.6,3c-1.2,0.5-3.4,1.2-5.1,1.2"/>
<path class="st0" d="M110.8,91.4c-1.5-0.5-2.2-2-1.7-4.5c0.5-2.6,2.4-6.3,4-7.8c0.8-0.7,1.5-1,2.2-0.8"/>
<path class="st0" d="M154.4,34.1l0.3,0.2c1.4,1.1,1.3,3.8-0.3,4.9"/>
<path class="st0" d="M152.9,40.3c-0.8-0.2-1.6-0.5-2.1-0.9c-1.4-1.1-1-3,0.6-4.2c1.2-0.8,3-1.3,4.4-1"/>
<path class="st0" d="M96.4,48.9c0.8,0.2,1.4,0.8,1.7,1.7c0.5,1.6,0.1,4.2-1,6.2c-1.1,2-3.1,3.3-4.8,3.9c-1,0.4-1.9,0.5-2.7,0.3"/>
<path class="st0" d="M95,48.9l0.7,1.2c0.5,1.6,0.2,4.2-1,6.1c-1.1,2-3.1,3.3-4.8,3.9l-1.3,0.4"/>
<path class="st0" d="M89.6,61.1c-0.5-0.2-1-0.5-1.3-1.1c-0.8-1.4-0.8-4.2,0.4-6.4c1.2-2.2,3.7-3.9,5.6-4.5"/>
<path class="st0" d="M148.4,83.4c0.2,0.3,0.2,0.8,0.2,1.5c-0.1,1.4-0.7,3.9-2.5,5.4"/>
<path class="st0" d="M143,92.7l-0.6-0.3c-1.2-0.9-0.4-3.5,0.5-5.3c0.9-1.8,1.9-2.8,3.2-3.3c1.3-0.5,2.8-0.4,3.7-0.2"/>
<path class="st0" d="M140.4,70.1c-0.7,1.2-3.3,1.6-4.9,0.8c-1.6-0.8-2.3-2.8-1.5-4c0.8-1.2,2.9-1.7,4.5-0.8
	C140.1,66.8,141.2,68.9,140.4,70.1z"/>
<path class="st0" d="M138.1,69.4c-0.5,0.8-1.7,1.2-3,1.2"/>
<path class="st0" d="M127.7,106.1c0.8-1.2,2-2,2.7-2.5c0.4-0.2,0.6-0.3,0.8-0.3"/>
<path class="st0" d="M122.4,99.1c1.3-1,3.2-1.7,4.7-1.2"/>
<path class="st0" d="M119.8,79.7c0.8-2.1,2.9-3.1,4.5-3.1l0.8,0.1"/>
<path class="st0" d="M136.9,83.4c-1.1-0.7-1.1-1.2,0-2.7c1.1-1.4,3.4-3.7,5-3.6l0.2,0"/>
<path class="st0" d="M128,63.7c-0.2,0.6-0.6,1-2.7,1.7c-2.1,0.6-5.9,1.4-7.9,1l-0.2,0"/>
<path class="st0" d="M125.7,63.1c-0.2,0.6-0.6,1-2.7,1.7c-1.7,0.5-4.6,1.1-6.7,1.1"/>
<path class="st0" d="M97.5,100.5c2.2-0.6,5.6-0.6,7.4-0.6l1.2,0.1"/>
<path class="st0" d="M98.2,77.5L96.2,78"/>
<path class="st0" d="M147.7,94.7c0,1-0.4,2.3-1.7,3.5c-1,0.9-2.7,1.7-4.1,1.8"/>
<path class="st0" d="M122,45.6c0.1,2.1-1.5,3.8-3.3,4.2l-0.3,0.1"/>
<path class="st0" d="M96.6,81c1.2,1.3,2.7,3.7,2.3,5.8c-0.4,2.1-2.8,3.9-4.7,4.4l-0.2,0.1"/>
<path class="st0" d="M135,54.5c-0.8,0.6-2.2,1.4-3.4,1.8"/>
<path class="st0" d="M130.9,101.2c-0.5-1-1.3-3-1.3-4.8c0.1-1.9,1.1-3.6,2.8-3.8c0.6-0.1,1.2,0.1,1.8,0.3"/>
<path class="st0" d="M130.6,71.6c-0.1,1.8-1,3.5-1.9,4.3l-1,0.7"/>
<path class="st0" d="M100.6,60.7c0.6,1.5,0,3.6-1.1,5.1c-0.7,1-1.5,1.7-2.4,1.8"/>
<path class="st0" d="M137.3,39.8c-0.8,1.5-2.6,3-4,3.7l-0.6,0.3"/>
<path class="st0" d="M145.6,39c-0.4,1.1-0.9,1.5-1.8,1.6"/>
<path class="st0" d="M93.1,43.6c1.2,0.6,1.4,2.1,0.2,3.6c-1.1,1.5-3.4,3.1-4.7,2.8"/>
<path class="st0" d="M91.3,43.3c0.8,0.7,0.7,2-0.3,3.3c-0.8,1-2.1,2.1-3.3,2.6"/>
<path class="st0" d="M154.3,45.1c-1.3,1.5-3.8,3.7-5.7,4.2"/>
<path class="st0" d="M119.9,98c0.1,1.9-0.5,3.5-1.1,4.7c-0.6,1.2-1.4,1.9-2.3,2.3c-0.7,0.3-1.4,0.4-2.3,0.1"/>
<path class="st0" d="M96.9,112.7c1.3-1.2,2.1-1.5,3.3-1"/>
<path class="st0" d="M105.6,56.2c-0.8,1.3-2,2-3.5,2"/>
<path class="st0" d="M146.6,52.2c0.5,1.5,0.4,3.3,0.1,4.3c-0.2,1-0.6,1.3-1.8,1.3l-2.1-0.1"/>
<path class="st0" d="M150.3,73.1c-0.3,1.9-1.2,5.1-2.4,6.7c-0.4,0.6-0.9,0.9-1.4,1.1"/>
<path class="st0" d="M138.2,93.6l-4.8-2.8c-1.2-0.8-1.2-0.9-0.7-1.9c0.6-1,1.7-2.9,3.3-3.5c0.7-0.3,1.5-0.3,2.3,0"/>
<path class="st0" d="M102.1,45c-1.1,1.3-2.9,2.2-4.5,2.3l-0.3,0"/>
<path class="st0" d="M109.2,77.2c-0.8,2.2-2.7,5.8-4.1,7.6c-0.5,0.6-1,1-1.4,1.2"/>
<path class="st0" d="M116.2,76l-0.9,0"/>
<path class="st0" d="M128.6,43.2c-0.2,1.4-0.5,1.6-1.2,1.8l-0.4,0.1"/>
<path class="st0" d="M106.1,92.9c0,1.7-0.7,3.4-2.8,4.3c-1.5,0.6-3.8,0.8-5.7,0.5"/>
<path class="st0" d="M142.7,42.6c0.7,1.2,0.6,3.1-0.4,4.9c-0.8,1.3-2.1,2.5-3.3,2.9"/>
<path class="st0" d="M153.5,100.3c-0.5,0.9-1.3,1.4-2,1.6"/>
<path class="st0" d="M135,106.8c-1.4-0.6-2.1-2.2-1.3-4c0.8-1.8,3-3.7,4.6-3.7l0.6,0.1"/>
<path class="st0" d="M121,89.4c0.9-0.6,2.3-1.3,4.1-1.1l2.1,0.4"/>
<path class="st0" d="M112.1,46.9c-0.8,1.3-1.8,2-2.7,2.2"/>
<path class="st0" d="M110.9,62.5c0.9,1.5,0.9,3.1,0.6,4.7c-0.3,1.6-1.1,3.2-1.6,4l-0.3,0.4"/>
<path class="st0" d="M149.2,67.8c-0.6,0.6-1.4,1-2.1,1.1"/>
<path class="st0" d="M117.9,106.8c0.2-1.3,0.9-2.1,2.4-2.1c0.8,0,1.9,0.2,2.8,0.5"/>
<path class="st0" d="M127.2,57.2c-0.1,1.2-0.2,1.8-0.5,2.2"/>
<path class="st0" d="M92.7,105.7c1.5,0.9,2.7,3.2,2.4,5.6c-0.3,2.4-2.2,4.9-3.7,6.3c-0.9,0.8-1.6,1.3-2.1,1"/>
<path class="st0" d="M91,105.3c1.2,1.1,2.1,3.1,1.8,5.1c-0.3,2.4-2.2,4.9-3.7,6.3l-0.7,0.6"/>
<path class="st0" d="M154.4,39.3c-0.7,0.5-1.7,0.7-2.7,0.7"/>
<path class="st0" d="M94.3,49.1c0.8-0.2,1.5-0.3,2-0.1"/>
<path class="st0" d="M146,90.3c-1.1,1-2.6,1.6-3.9,1.7"/>
<path class="st0" d="M160.6,105.9"/>
<path class="st0" d="M163.2,27.4"/>
<path class="st0" d="M163.2,27.4"/>
<path class="st0" d="M81.6,38.7"/>
<path class="st0" d="M81.6,38.7"/>
<path class="st0" d="M82.7,126.6"/>
<path class="st0" d="M148.9,52.7c0.5,1.5,0.4,3.3,0.1,4.4c-0.2,1-0.6,1.3-1.8,1.3c-0.9,0-2.2,0-3.4-0.3"/>
<path class="st0" d="M152.7,73.7c-0.3,1.9-1.2,5.2-2.4,6.8c-0.8,1.1-1.7,1.4-2.6,1.2"/>
<path class="st0" d="M111.6,77.9c-0.8,2.2-2.7,5.9-4.1,7.6c-1,1.2-1.7,1.5-2.5,1.3"/>
<path class="st0" d="M131,43.7c-0.2,1.4-0.5,1.6-1.2,1.8c-0.4,0.1-1,0.2-1.6,0.1"/>
<path class="st0" d="M114.5,47.4c-1.2,1.8-2.5,2.5-3.9,2.2"/>
<path class="st0" d="M39.8,91.5l1.7-0.6"/>
<path class="st0" d="M88.5,44.7c0.4,1.2,0.9,2.4,1.4,3.1"/>
<path class="st0" d="M34.3,92.6c0.4-0.7,0.3-1.6-0.6-2.3L33.3,90"/>
<path class="st0" d="M44.2,69l-0.7,1.2c-0.8,1.9-0.2,3.5,0.7,4.5"/>
<path class="st0" d="M143.1,65.7c-0.7-0.9-1.6-1.7-2.7-2.2"/>
<path class="st0" d="M141.5,82.9l-0.6-1"/>
<path class="st0" d="M40.5,79.2l-1,1.5l-0.3,1.6"/>
<path class="st0" d="M31.2,66.2c-0.6,0.2-1.2,0.6-1.7,1.1"/>
<path class="st0" d="M54.2,110.8c1-0.2,1-1.6,0.4-3.1"/>
<path class="st0" d="M45.1,96.5L45,97.3c0,1.1,0.5,2.7,1.5,4c0.7,0.9,1.6,1.6,2.5,2"/>
<path class="st0" d="M59.5,108.6c-0.4,0.5-0.4,1.2,0,2"/>
<path class="st0" d="M27.8,75.2l0.5,1.8c0.2,0.6,0.6,0.9,0.9,1"/>
<path class="st0" d="M70.6,44.3c-1.2,1-2.6,3.3-3.3,4.8c-0.7,1.5-0.6,2.3,0.6,3c0.8,0.5,2.2,0.9,3.3,0.8"/>
<path class="st0" d="M21.3,67.5c-0.8,1.2-0.6,4.2-0.2,5.9c0.4,1.5,1,2,1.8,1.9"/>
<path class="st0" d="M28.5,77.4l0.9-0.5"/>
<path class="st0" d="M51.1,102.5l-0.5,0.4c-0.5,0.6-1.3,1.9-1.7,3.1c-0.3,1.2-0.2,2.2,0.9,3.1c1.1,1,3.2,1.9,4.2,1.6"/>
<path class="st0" d="M39.7,53.6c0.3,1.8,1.4,4.4,2.7,5.3c0.4,0.3,0.9,0.4,1.3,0.3"/>
<path class="st0" d="M29.4,62.8c1.2,1.5,3.4,3.6,5,3.9l0.7,0"/>
<path class="st0" d="M44.3,52.9c-0.6-0.2-1.1,0-1.6,0.4"/>
<path class="st0" d="M39.4,42.4c-0.6,1.9,0.2,4.2,1.1,5.5c0.7,1,1.5,1.4,2.2,1.3"/>
<path class="st0" d="M42.9,64.7c0.6,1.5,2.1,3.8,3.5,4.3l1.1,0.1"/>
<path class="st0" d="M68.4,43.5l-0.7-0.1c-0.6,0-1.2,0.3-1.8,0.6"/>
<path class="st0" d="M52.5,103.9l-0.6,1.4c-0.2,0.7-0.2,1.4,0.1,2.1"/>
<path class="st0" d="M73.5,118.8c0.3-0.1,0.6-0.4,0.9-1.1c0.6-1.8,0.6-6.1-0.1-8.5"/>
<path class="st0" d="M21.2,63.7c0.8,1.5,2.2,2.1,3.4,1.9"/>
<path class="st0" d="M31.1,79.4c-0.4,1.1-1.1,3.4-1.3,4.8c-0.2,1.4,0.1,1.9,1,2.5c0.9,0.5,2.3,1.1,3.3,0.9"/>
<path class="st0" d="M45.6,81.8l0.2-0.5c0.3-1.2,0.1-2.4-0.3-3.2"/>
<path class="st0" d="M20.1,43.5c0.6,0.8,1.9,1.8,3.1,2.2l1.3,0.1"/>
<path class="st0" d="M52.4,67.8c0.7,1.8,2.3,3.9,3.4,4.4l0.8,0.1"/>
<path class="st0" d="M54.7,73c-0.6-0.2-1.2-0.2-1.9-0.1"/>
<path class="st0" d="M58.9,97l0.4-0.2c1-0.5,2-1.9,2.3-3.4c0.3-1.5-0.1-3-1.8-4.2"/>
<path class="st0" d="M31.7,40.1c-0.8,0.1-2,0.4-2.8,1.2"/>
<path class="st0" d="M50.2,69.7c-1.1,0.2-2,1.1-2.6,1.8c-0.7,1-0.6,1.7,0.1,3.1"/>
<path class="st0" d="M32.6,57.3c0.5,1.4,1.2,2.6,1.9,3.3l0.8,0.5"/>
<path class="st0" d="M45.7,36.9c-0.5,0.1-0.5,0.5-0.3,1.4"/>
<path class="st0" d="M20.7,46.1c-0.3,0-0.5,0.2-0.6,0.6c-0.5,1.4-0.4,5.2,0.7,7.4c0.8,1.6,2,2.4,2.8,2.3"/>
<path class="st0" d="M57.2,49.9c-0.3,1.1-0.5,2.4-0.3,3.5"/>
<path class="st0" d="M53,86.7c-0.7,0.2-0.8,0.8-0.3,2.2c0.7,1.7,2.2,4.6,3.5,6.3c1,1.4,1.8,2,2.7,1.8"/>
<path class="st0" d="M71.3,106.5c-0.5,0.1-0.7,0.6-0.7,2.4c0,2.1,0.2,5.8,1,7.9c0.5,1.4,1.2,2.1,1.9,2"/>
<path class="st0" d="M49.3,58.1l0.5-0.2c0.7-0.5,1.4-2,1.5-3.5c0.1-1.6-0.4-3.2-1.2-4.6c-0.8-1.4-2.1-2.5-3.1-2.3"/>
<path class="st0" d="M56.6,72.4c0.8-0.1,1.3-1.1,1.4-2.2c0.2-1.5-0.2-3.2-1.4-4.5c-1-1.1-2.7-1.7-3.7-1.6"/>
<path class="st0" d="M40.1,63.3l0.7-0.3c0.6-0.5,0.8-1.2,0.3-2.9c-0.5-1.7-1.6-4.4-2.9-5.7c-1.3-1.3-2.9-1.4-3.8-1.3"/>
<path class="st0" d="M42.1,85.1c-0.5,0.1-0.6,0.7-0.5,1.8"/>
<path class="st0" d="M54.5,55.8l-1,0.3c-1.5,0.6-2.1,2-2.3,3.2c-0.1,1.2,0.3,2.1,1.4,2.9c1.1,0.8,3,1.4,4.5,1.3"/>
<path class="st0" d="M31.6,56.6c-1.2,0.2-2.3,1.6-2.9,2.6c-0.7,1.3-0.5,2.1,0.7,3.6"/>
<path class="st0" d="M63.6,57c-0.5,0.1-0.9,0.4-1.2,0.8"/>
<path class="st0" d="M42.7,39.3c-1.3,0.2-2.8,1.5-3.3,3"/>
<path class="st0" d="M39.7,65c-0.4,0.1-0.8,0.3-1.2,0.6c-0.9,0.8-1.8,2.3-2.2,3.3c-0.4,1-0.3,1.4,0.6,2.7c0.9,1.3,2.5,3.3,4.1,3.8
	l1.4,0.1"/>
<path class="st0" d="M55.4,87.1l0.3,1.3c0.7,1.7,2.2,4.6,3.5,6.2l1.2,1.3"/>
<path class="st0" d="M57.2,40.1l-0.6,0.4c-0.6,0.7-0.7,2.4,0,5c0.7,2.5,2.1,6,3,7.8c0.9,1.9,1.3,2.2,2,2.1l0.3,0"/>
<path class="st0" d="M45.3,76.2c-1.2,0.2-2.2,1.1-2.8,2.2"/>
<path class="st0" d="M46.8,76.3c-0.6,0.4-1,1-1.3,1.6"/>
<path class="st0" d="M56.7,98.3l-0.5,0.2c-1.2,0.5-2.7,2-2.8,3.7c-0.1,1.6,1.2,3.4,2.6,4.3c1.1,0.7,2.4,0.8,3.3,0.5"/>
<path class="st0" d="M104,111.6l-0.6,0.1"/>
<path class="st0" d="M21.7,76.7c-0.2,0-0.4,0.3-0.5,0.9c-0.3,1.4-0.1,4.6,0.3,6.4"/>
<path class="st0" d="M73.1,104.9c0.4-0.1,0.8-0.6,1.1-1.6c0.6-2.3,0.5-7.3,0.4-9.8c-0.1-1.6-0.1-2.2-0.4-2.1"/>
<path class="st0" d="M73.6,107.7l0,0.5c0,2,0.2,5.8,1,7.9l0.1,0.2"/>
<path class="st0" d="M23.9,37.4c-1.4,0.2-2.9,2.1-3.6,3.4c-0.7,1.2-0.7,1.9-0.1,2.7"/>
<path class="st0" d="M114.8,60.3l-1.3-0.1"/>
<path class="st0" d="M38,85.7L37.3,86c-0.8,0.6-1.3,1.9-1.3,3.5"/>
<path class="st0" d="M62.8,40.9c-1.4,0.2-1.3,1.4,0.2,3.6c1.3,2,2.5,2.9,3.5,2.7"/>
<path class="st0" d="M138.9,94l-0.7-0.3"/>
<path class="st0" d="M53,64.1l-0.3,0.1c-1,0.4-1,1.8-0.3,3.6"/>
<path class="st0" d="M43.7,59.2c0.9-0.1,1.6-0.9,1.8-2c0.2-1.6-0.8-4-1.9-5.3c-0.9-1.1-1.8-1.5-2.5-1.4"/>
<path class="st0" d="M54.2,47c-1,0.1-1.8,1.2-2.1,2.4c-0.4,1.6,0,3.2,1.4,4.2"/>
<path class="st0" d="M145.4,50.4c0.5,0.4,0.9,1.1,1.2,1.8"/>
<path class="st0" d="M33.4,80.7l-0.7,2.9c-0.2,1.4,0.1,1.9,1,2.5l1.6,0.7"/>
<path class="st0" d="M51.2,83.2l-0.1-0.1"/>
<path class="st0" d="M42.8,51.1c-0.2,0.5-0.3,1.2-0.1,2.1"/>
<path class="st0" d="M68,95l0.2-0.1c1.7-0.5,3.6-2.7,3.2-5c-0.5-2.3-3.2-4.7-5-5.8c-0.9-0.6-1.6-0.7-2.1-0.6"/>
<path class="st0" d="M48.7,48c-0.4,0.7-0.6,1.5-0.5,2.6"/>
<path class="st0" d="M18.9,100.5l60.4,26.8"/>
<path class="st0" d="M63.1,28.1c1-0.3,1.2-0.8,1.2-1"/>
<path class="st0" d="M79.3,127.3L78,39"/>
<path class="st0" d="M28.4,92.5l0.7-0.4c0.7-0.8,0.6-2.9,0.5-4.2c-0.2-1.3-0.5-1.9-1.1-2.4c-0.6-0.5-1.5-1-2.3-0.8"/>
<path class="st0" d="M63.9,25.5c-0.8-0.3-2.6-0.7-4.2-0.8c-1.6-0.2-2.9-0.2-4.2,0c-1.3,0.1-2.6,0.4-2.6,0.8"/>
<path class="st0" d="M71,30.9c0.2,0.5,2.1,0.9,5.1,0.8c3-0.1,7.1-0.7,7.4-1.2"/>
<path class="st0" d="M31.8,40.9c-0.9,1-1.3,2.8-0.6,4.7c0.4,1.1,1,2.2,1.7,3.2"/>
<path class="st0" d="M83.6,30.4c0-0.5-3-0.9-5.1-1.1c-2.2-0.2-3.5-0.1-4.9,0.2c-1.3,0.3-2.6,0.8-2.6,1.3"/>
<path class="st0" d="M53,24.4c0-0.3-1.3-0.6-2.9-0.7c-1.6-0.1-3.4-0.2-5.2,0c-1.7,0.2-3.3,0.5-3.4,0.9"/>
<path class="st0" d="M53.7,27.3l0.1,0.2c0.5,0.3,2.7,0.8,4.7,0.9c2,0.1,3.7,0,4.6-0.4"/>
<path class="st0" d="M68.6,108.7c-1.4-2.1-3.9-2.7-5.2-2.5l-0.3,0"/>
<path class="st0" d="M46.2,95.3l0.8-0.5c0.9-1,1.2-3.7,0.2-5.7c-1-2-3.1-3.4-4.3-3.8l-0.9-0.2"/>
<path class="st0" d="M76.7,26.5c2.3-0.3,3.3-0.8,3.3-1.2"/>
<path class="st0" d="M24.5,65.7l0.4-0.1c1.2-0.4,1.8-1.9,2.1-3c0.2-1.1,0.1-2-0.2-2.5c-0.2-0.6-0.5-0.9-1.6-1.4
	c-0.8-0.4-2.1-0.9-3.1-0.7"/>
<path class="st0" d="M80.7,28.9c1,0.4,4.2,0.9,6.3,1.2c2,0.2,2.8,0.2,4,0c1.2-0.2,2.7-0.7,2.9-1.1"/>
<path class="st0" d="M117.6,97.2c0.1,1.9-0.5,3.5-1.1,4.6c-0.6,1.1-1.4,1.9-2.3,2.3l-1.2,0.3"/>
<path class="st0" d="M15,21L78,35.1"/>
<path class="st0" d="M64.3,27c0-0.2-0.2-0.2-1.7-0.2l-6.4,0.1c-1.6,0.1-2.6,0.2-2.6,0.4"/>
<path class="st0" d="M131.5,101.9l-0.6-0.7"/>
<path class="st0" d="M40.5,87.6l-0.9,0.2L39,88"/>
<path class="st0" d="M127.1,97.9l0.3,0.1c1.5,0.7,2.3,2.7,2.1,4.1c-0.2,1.4-1.4,2.3-3.2,2.4c-0.9,0.1-2-0.1-3-0.4"/>
<path class="st0" d="M50.8,64.6l-0.6-0.8l-0.4-0.3"/>
<path class="st0" d="M111.5,74.3l0.3,0.2c0.3,0.4,0.6,1.2-0.2,3.4"/>
<path class="st0" d="M61.3,72.5c-0.5,0.4-0.8,1-1,1.5c-0.4,0.9-0.3,1.5,0.7,2.7c0.9,1.1,2.4,2.8,3.7,3.7"/>
<path class="st0" d="M76.8,17.7L74.5,18"/>
<path class="st0" d="M150.2,71.2c0.3,0.4,0.3,0.9,0.2,1.9"/>
<path class="st0" d="M141.9,41.8l0.9,0.9"/>
<path class="st0" d="M34.2,53.1c-0.7,0.1-0.9,0.3-1,0.5c-0.1,0.2-0.1,0.2,0.7,1.9c0.8,1.7,2.5,5,3.8,6.6c0.9,1.1,1.7,1.4,2.3,1.3"/>
<path class="st0" d="M90.7,63.5l1.4,0.8"/>
<path class="st0" d="M35,41.5c-0.4,0-0.7,0.3-0.9,0.9c-0.6,1.6-0.6,5.5,0.2,7.4c0.6,1.6,1.7,1.9,2.7,1.8"/>
<path class="st0" d="M22.2,87.1c-0.2,0-0.4,0.2-0.5,0.7c-0.3,1.1-0.2,3.6,0.3,5c0.4,1.2,1.2,1.5,1.7,1.4"/>
<path class="st0" d="M55.6,78.7c-1.2,0.2-2.3,1.2-2.8,2.2c-0.7,1.3-0.5,2.7,1,3.9"/>
<path class="st0" d="M154.7,59l-1-0.1"/>
<path class="st0" d="M67.5,53.9c-1.1,0.2-1.4,1-0.6,2.9c0.8,2,2.8,5.1,4.2,6.7c0.8,0.9,1.4,1.4,1.8,1.3"/>
<path class="st0" d="M133.6,78.6l-0.3,0.1"/>
<path class="st0" d="M22.1,57.9c-0.4,0.1-0.7,0.2-1,0.5c-0.9,1-0.8,3.7,0.1,5.4"/>
<path class="st0" d="M156.8,39.7c-1,0.7-2.6,0.8-3.9,0.6"/>
<path class="st0" d="M47.1,59.4l-0.2,0c-1.2,0.3-2.7,1.2-3.6,2.1c-0.9,0.9-1,1.6-0.4,3.1"/>
<path class="st0" d="M80.4,26.7c0,0.4,0.8,0.6,2.7,0.7c2,0.1,5.2,0.1,7.4-0.1C92,27.2,93,27,93,26.8"/>
<path class="st0" d="M161.5,105.7l2.3-0.6"/>
<path class="st0" d="M93,26.8l-0.4-0.3"/>
<path class="st0" d="M28.3,64.8c-1,0.2-1.5,1.4-1.7,2.8c-0.2,1.6,0.2,3.4,1,5c0.8,1.6,2.2,2.9,2.9,3.6"/>
<path class="st0" d="M73,44.6c-1,1.1-2.1,2.8-2.6,4c-0.7,1.5-0.6,2.3,0.6,3l1.5,0.6"/>
<path class="st0" d="M20.7,30.8c-0.5,0.1-1,0.4-1.3,1.1c-0.7,1.6-0.5,5.2,0.4,6.1"/>
<path class="st0" d="M38.3,21.1c0.2,0.3,1.9,0.6,4.1,0.6c2.1,0,4.6-0.2,6-0.4l1.4-0.3l-0.1-0.1c-0.4-0.2-1.3-0.4-2.9-0.5"/>
<path class="st0" d="M147.8,87.7c-1-0.3-2-0.3-2.7-0.2l-0.3,0.1"/>
<path class="st0" d="M41.1,50.5l-0.4,0.1c-0.8,0.3-1.3,1.2-1,3"/>
<path class="st0" d="M62.7,24.4c0,0.3,1.7,0.6,4.2,0.6c2.7,0,6.2-0.3,7.1-0.7l0.3-0.3"/>
<path class="st0" d="M35.7,73.7c-1.3,0.2-2.4,2.2-2.2,4.1c0.2,2.1,1.7,4.2,3.1,5.3c1.3,1.1,2.5,1.2,3.3,1.1"/>
<path class="st0" d="M74.3,24.1c0-0.4-1.3-0.7-2.3-0.9c-1.3-0.3-2.2-0.3-4.1,0"/>
<path class="st0" d="M22.2,66.9c-0.4,0.1-0.7,0.3-0.9,0.6"/>
<path class="st0" d="M132.1,59.6c0.8,1.2,2.2,2.8,3.7,3"/>
<path class="st0" d="M71.7,43.7l-1.1,0.6"/>
<path class="st0" d="M42,102c0-1.4-0.5-3-1.3-4c-0.9-1.1-2.1-1.6-3-1.5l-0.2,0"/>
<path class="st0" d="M53.5,53.6c0.8,0.6,2,0.9,2.9,0.8"/>
<path class="st0" d="M37.4,40.3l0.4-0.1c1.7-0.4,3.8-2,4.9-2.9c1.1-0.9,1.1-1.1-0.7-1.7c-1.7-0.5-4.8-1.3-6.6-1"/>
<path class="st0" d="M45.1,51c0.1,1.9,1.2,4.2,2.1,5.6c0.8,1.1,1.4,1.6,2.1,1.5"/>
<path class="st0" d="M108.4,16.6l0.4,0.1c0.5,0.1,1.6,0.4,4.3,0.6l9.3,0.5l1.9,0"/>
<path class="st0" d="M24.7,49c-0.1,1.9,0.8,5.4,1.4,7.3c0.4,1.4,0.7,1.9,1.1,1.8"/>
<path class="st0" d="M110.7,21.8l0.4,0.2c0.8,0.3,2.7,0.6,4.9,0.8c2.2,0.2,4.6,0.2,6.6,0.2l4.2-0.3l0.4-0.1"/>
<path class="st0" d="M21.5,83.9c0.4,1.5,1,2,1.5,1.9"/>
<path class="st0" d="M140.8,81.9c-0.7-0.9-1.5-1.3-2.5-1.1"/>
<path class="st0" d="M25,35.2c0.7,1.4,1.9,2.8,3.2,3.5c0.7,0.3,1.4,0.4,2,0.4"/>
<path class="st0" d="M89.4,18.7c0-0.1-0.2-0.3-0.7-0.4c-1.5-0.3-5.8-0.4-8.3-0.4c-2.3,0-3,0.1-3,0.4"/>
<path class="st0" d="M42.5,78.4c-0.7,1.5-0.5,3.2,0.7,4.8c1.2,1.6,3.3,2.9,4.7,3.5c0.8,0.3,1.4,0.4,1.8,0.3"/>
<path class="st0" d="M78.5,20.8c0,0.3,0.3,0.7,1.8,0.9c1.9,0.3,5.6,0.5,7.8,0.5c2.2,0,3-0.1,3.5-0.4c0.3-0.2,0.6-0.4,0.6-0.7"/>
<path class="st0" d="M62.4,57.9c-0.6,0.9-0.7,2.3,0.1,4.7c0.8,2.4,2.5,5.7,3.6,7.3c0.6,1,1,1.4,1.4,1.3"/>
<path class="st0" d="M154.5,87.5l-0.3,0l-0.3,0"/>
<path class="st0" d="M33.5,38.2c0.1,1,0.1,1,0.8,1.3c0.6,0.3,1.7,1,3.2,0.8"/>
<path class="st0" d="M50.7,74c0.7,1.3,2,3.1,3.4,3.6"/>
<path class="st0" d="M45.5,38.3c0.3,1.4,0.9,4.1,1.8,5.9c0.9,1.9,2.2,3,3.5,2.8"/>
<path class="st0" d="M63.4,19.5c0,0.2,0.3,0.4,0.5,0.5"/>
<path class="st0" d="M47.8,74.6c0.7,1.4,2.2,3.3,3.7,3.8l1.1,0"/>
<path class="st0" d="M77.3,19.7c-0.3-0.3-1.1-0.9-2.8-1.2c-1.7-0.3-4.4-0.2-6.5-0.1c-2.1,0.2-3.7,0.4-4.3,0.7l-0.3,0.4"/>
<path class="st0" d="M28.9,41.2c-0.9,1-1.3,2.8-0.6,4.7c0.7,2,2.4,4.2,3.4,5.1c0.4,0.4,0.6,0.6,0.8,0.6"/>
<path class="st0" d="M134.7,63l1.2-0.4"/>
<path class="st0" d="M23.8,58.1c-0.8,1.1-0.6,3.6,0.2,5.2"/>
<path class="st0" d="M88.9,23.4c0-0.2-0.4-0.5-1.5-0.7c-1.8-0.3-5.5-0.4-8.3-0.4"/>
<path class="st0" d="M133.7,55.4l-1.1,0"/>
<path class="st0" d="M32.8,40.4l-0.1,0.8c0,0.6,0,1,0.2,1.4"/>
<path class="st0" d="M48.5,37.9c0.3,1.4,0.9,4,1.8,5.9c0.6,1.2,1.3,2.1,2,2.5"/>
<path class="st0" d="M63.8,47.2c-0.1,1.5,0.9,3.1,1.7,3.8"/>
<path class="st0" d="M37.3,34.6c-1.1,0.7-0.9,2.3-0.9,3.1"/>
<path class="st0" d="M27,60.4l0.1,1.2"/>
<path class="st0" d="M41,35.4c0.5,0.8,1.2,1.5,1.9,1.9"/>
<path class="st0" d="M57,66.1l-1.8,0.7"/>
<path class="st0" d="M60.7,58.1l-1.3-0.6"/>
<path class="st0" d="M73.5,49.7l-0.6-0.3"/>
<path class="st0" d="M23.1,85.8l0.3-0.1c0.7-0.4,1.3-1.4,1.2-3c-0.1-1.6-0.9-3.7-1.7-4.9c-0.5-0.7-0.9-1.2-1.2-1.1"/>
<path class="st0" d="M40.9,95.9c0.7-0.1,1-0.8,0.9-2.3c-0.1-1.8-0.7-4.9-1.6-6.4c-0.7-1.2-1.5-1.5-2.2-1.4"/>
<path class="st0" d="M55,64.5c-0.2,0.7-0.1,1.6,0.4,2.8"/>
<path class="st0" d="M63.4,54.2c0.4-0.6,0.6-1.2,0.5-1.9c-0.1-1.6-1.2-3.4-2.5-4.4l-1.1-0.6"/>
<path class="st0" d="M39,69.3c0.8,0.2,1.7,0.1,2.9-0.6l1.5-1.1"/>
<path class="st0" d="M36.8,78.9l1.1-0.1c0.7-0.2,1.5-0.5,2.1-0.9"/>
<path class="st0" d="M50.6,44.5c1.2,0.1,2.6-0.2,3.7-0.8"/>
<path class="st0" d="M46.8,83.4l0.6-1.5c0.4-1.6-0.1-3.1-0.8-4"/>
<path class="st0" d="M70.4,48.6l0.4-0.6l0.4-1"/>
<path class="st0" d="M45.7,61.9l1.6,0.2c1.9,0.2,2.2,0.1,2.5-0.4l0.3-0.9"/>
<path class="st0" d="M54.9,64.9l0.8,0"/>
<path class="st0" d="M42.7,51.4l0.3-0.1"/>
<path class="st0" d="M50.2,72.7l1.2-1.8"/>
<path class="st0" d="M55.5,52.1l0.6-4"/>
<path class="st0" d="M38.4,58.1l0.9-2.2"/>
<path class="st0" d="M33,45.4c-0.4-0.9-1.1-1.6-2.1-2"/>
<path class="st0" d="M59.8,45.6c0.7,0,1.4-0.2,2.2-0.5l0.3-0.1"/>
<path class="st0" d="M65.4,43.1l1.3-1l0.3-0.2"/>
<path class="st0" d="M33.3,63.5c0.5-0.4,0.5-0.9,0.1-2l-1.5-3.2"/>
<path class="st0" d="M29.9,55.8l-0.8-0.4"/>
<path class="st0" d="M62.2,51.8c0-1.1-0.6-2.4-1.5-3.4"/>
<path class="st0" d="M36.5,78.1c1-0.3,2.1-0.8,2.8-1.6"/>
<path class="st0" d="M28.2,52.6l0.3-0.2"/>
<path class="st0" d="M45.9,61.5c1.6,0.1,1.9,0,2.1-0.4c0.2-0.3,0.4-0.7,0.2-1.5"/>
<path class="st0" d="M60.5,59.6c-0.3-0.6-0.7-1.2-1.2-1.7l-0.9-0.6"/>
<path class="st0" d="M43.8,47.8c0.3-0.8,0.5-1.6,0.5-2.4"/>
<path class="st0" d="M28.4,53.3c0.6,0.1,1.2-0.1,1.8-0.4"/>
<path class="st0" d="M40.9,38.7c-1.1-1.1-2.7-2.8-4-3.8"/>
<path class="st0" d="M36.8,43.3l0.4-0.1"/>
<path class="st0" d="M42.7,41.4c1.2-0.5,1.4-0.6,0.9-1.2"/>
<path class="st0" d="M41.7,38.2c-1.1-1.1-2.4-2.3-3.4-3l-0.7-0.4"/>
<path class="st0" d="M37.4,56.1c0.3-0.7,0.4-1.4,0.4-2.1"/>
<path class="st0" d="M41.9,73.6c-0.2-0.7-0.7-1.4-1.2-1.9l-0.9-0.6"/>
<path class="st0" d="M68.8,44.6l-1.2-1.2"/>
<path class="st0" d="M68.7,43.5l-0.3-0.1"/>
<path class="st0" d="M31.7,46.7l-0.3-1.5l-0.4-0.8"/>
<path class="st0" d="M45,54.2l-1.4-1.3"/>
<path class="st0" d="M31.8,74c0.8-1.3,1.5-2.9,1.7-4.2l0-1.4"/>
<path class="st0" d="M45.4,43.9c-0.3-0.4-0.8-0.7-1.4-0.9"/>
<path class="st0" d="M50.2,66.8l-0.1-0.6c-0.3-0.9-0.7-1.7-1.1-2.3"/>
<path class="st0" d="M32,62l-0.3-1l-0.5-1.2"/>
<path class="st0" d="M30.4,37.8c0.6-1.2,0.8-2.6,0.6-3.8"/>
<path class="st0" d="M34.2,98.4l0.2,0"/>
<path class="st0" d="M43.4,103.9c-0.8,0.2-1.1,1.2-0.3,2.2c0.9,1,3,2,4.1,1.9l0.2,0"/>
<path class="st0" d="M60.2,63.8c-0.7,0.1-1.2,0.9-1.4,1.8c-0.3,1.4,0.1,3.2,1.3,4.5c1.2,1.3,3.3,2.2,4.5,2.5l0.7,0.1"/>
<path class="st0" d="M46.9,47.4c-1,0.2-1.9,1.7-1.8,3.6"/>
<path class="st0" d="M25.8,47.2c-0.6,0.1-1,0.6-1,1.8"/>
<path class="st0" d="M26.3,74.9c-1,0.2-1.8,1.1-1.9,2.3c-0.2,1.5,0.7,3.6,1.6,4.9"/>
<path class="st0" d="M59.7,72.4c-1.3,0.2-2,1.3-2.4,2.1c-0.4,0.9-0.3,1.5,0.7,2.7c0.9,1.2,2.8,3.2,4.1,4c0.6,0.4,1.1,0.5,1.5,0.5"/>
<path class="st0" d="M35.5,34.6l-0.6,0.1c-1.7,0.5-1.5,2.5-1.4,3.4"/>
<path class="st0" d="M71.7,67.4c-1,0.9-2.1,2.9-1.7,4.8c0.4,1.7,1.9,3.5,3,3.3"/>
<path class="st0" d="M53.8,84.8c1.5,1.2,4.3,2.2,5.9,1.9"/>
<path class="st0" d="M25.9,82.2c0.7,1,1.4,1.5,2.1,1.4"/>
<path class="st0" d="M62.9,103.7c1.6,1.2,4.1,1.8,5.5,1.8l0.9,0"/>
<path class="st0" d="M26,84.7c-0.8,0.3-1.5,1.3-1.5,2.7c0,1.3,0.5,3,1.5,4c0.7,0.8,1.7,1.2,2.4,1.1"/>
<path class="st0" d="M61.9,64.7L61.8,65c-0.3,1.4,0.1,3.1,1.3,4.5c0.6,0.7,1.5,1.3,2.4,1.7"/>
<path class="st0" d="M24.4,90.4l0.3,1.5"/>
<path class="st0" d="M57.1,78.8c-0.6,0.4-1,0.9-1.3,1.5c-0.7,1.3-0.5,2.7,1,3.9"/>
<path class="st0" d="M27.7,48l-0.1,0.5"/>
<path class="st0" d="M23.9,79.8c0,1.3,0.2,2.6,0.4,3.6"/>
<path class="st0" d="M64.8,95.8c-0.5,0.6-0.9,1.5-1,2.4c-0.2,1.7,0.5,3.5,2.1,4.8"/>
<path class="st0" d="M22.4,31.6c-0.5,1.2-0.5,3.5-0.2,5"/>
<path class="st0" d="M35.3,66.7l-0.3,0"/>
<path class="st0" d="M44.5,86l0,0.3"/>
<path class="st0" d="M22.7,47.9c-0.1,1.7,0.2,4.1,1,5.7l0.9,1.4"/>
<path class="st0" d="M48.4,37.3l0.1,0.6"/>
<path class="st0" d="M73.8,68.2c-0.6,1-1,2.2-0.7,3.5c0.1,0.7,0.5,1.4,0.9,2"/>
<path class="st0" d="M74.6,93.7c-0.7,1-1.3,2.1-1.6,3.2c-0.5,2.2,0.2,4.6,1.2,6"/>
<path class="st0" d="M24,67.4c-0.6,1.4-0.4,4,0,5.5l0.6,1.4"/>
<path class="st0" d="M37,51.7l0.7-0.2"/>
<path class="st0" d="M23.8,94l0.3-0.1"/>
<path class="st0" d="M38,85.7l0.3-0.1"/>
<path class="st0" d="M47,47.4l0.6-0.1"/>
<path class="st0" d="M72.6,66.9l-0.9,0.5"/>
<path class="st0" d="M31.6,78.6c-0.2,0-0.3,0.3-0.5,0.8"/>
<path class="st0" d="M64.4,83.5c-0.4,0.1-0.8,0.4-1,0.9"/>
<path class="st0" d="M25.7,32.1l-0.3,0.1c-1.2,0.3-1,1.7-0.3,3"/>
<path class="st0" d="M26.2,84.7L26,84.7"/>
<path class="st0" d="M41.1,50.5l0.4-0.1"/>
<path class="st0" d="M74.2,91.4l-0.8,0.7"/>
<path class="st0" d="M23.6,56.4c0.4-0.1,0.7-0.3,0.8-0.7"/>
<path class="st0" d="M61.5,64.2c-0.5-0.4-0.9-0.5-1.3-0.5"/>
<path class="st0" d="M48.1,50.6c0.1,1.9,1.2,4.2,2.1,5.6l0.5,0.6"/>
<path class="st0" d="M56.8,84.3c1,0.8,2.6,1.5,4.1,1.8"/>
<path class="st0" d="M23,43.1c0.6,0.7,1.7,1.6,2.8,2.1"/>
<path class="st0" d="M67.7,53.9l-0.3,0"/>
<path class="st0" d="M28.7,81.6l0.5,0.6"/>
<path class="st0" d="M24.3,83.4l0.2,0.6"/>
<path class="st0" d="M24,63.3c0.5,0.8,1.1,1.4,1.8,1.7"/>
<path class="st0" d="M65.9,103c1.1,0.8,2.7,1.4,4,1.6"/>
<path class="st0" d="M59.9,72.3l-0.2,0"/>
<path class="st0" d="M30.5,76.2c0.4,0.3,0.6,0.5,0.8,0.5"/>
<path class="st0" d="M19.8,38l0.6,0.2"/>
<path class="st0" d="M36.4,37.8c0.1,1,0.1,1,0.8,1.3c0.4,0.2,1,0.5,1.8,0.7"/>
<path class="st0" d="M69.1,74.1c-0.9-0.7-1.3-0.9-1.6-0.8"/>
<path class="st0" d="M15.2,24.3l3.7,76.2"/>
<path class="st0" d="M79.3,127.3l3-0.8"/>
<path class="st0" d="M29.1,55.3l-0.2,0"/>
<path class="st0" d="M52.8,72.9c-0.7,0.2-1.4,0.6-2.1,1.1"/>
<path class="st0" d="M56,57.5l-1.7,0.7"/>
<path class="st0" d="M54.7,73.3L54,72.8"/>
<path class="st0" d="M93.9,28.8c0-0.4-1.2-0.8-3.3-1c-2.2-0.2-5.4-0.2-7.6,0c-1.7,0.1-2.7,0.4-2.7,0.7"/>
<path class="st0" d="M50.5,81.1l0.2,0.1"/>
<path class="st0" d="M88.6,48.8l-0.8-2.9"/>
<path class="st0" d="M30.2,52.9l1.1-0.8"/>
<path class="st0" d="M51.4,71l0.4-1"/>
<path class="st0" d="M72.5,49.4c-1.1,0-1.9,0.6-2.4,1.3"/>
<path class="st0" d="M49.7,80.7l0.7-0.1"/>
<path class="st0" d="M35.3,61.2l0.5,0"/>
<path class="st0" d="M29.2,78.1l0.6,0"/>
<path class="st0" d="M46.6,77.9l-0.8-0.6"/>
<path class="st0" d="M28.5,52.4c0.7-0.4,1.3-0.9,1.8-1.6"/>
<path class="st0" d="M44.3,45.4c0-1-0.3-1.9-1.2-2.5"/>
<path class="st0" d="M51.1,83.1l-0.4-0.4"/>
<path class="st0" d="M120.5,21l0.4,0.2"/>
<path class="st0" d="M121.6,24l-0.3-0.3"/>
<path class="st0" d="M113.2,23.1c-0.4-0.3-2.3-0.7-4-0.8c-1.7-0.1-3.3,0-4.1,0.4"/>
<path class="st0" d="M98.2,18c0,0.3,1.7,0.4,3.3,0.5"/>
<path class="st0" d="M30,20.7c0,0.2,0.9,0.3,1.9,0.3"/>
<path class="st0" d="M65.7,22.9c0-0.3-1.5-0.4-3.2-0.5c-2-0.1-4.2,0-6.1,0.2"/>
<path class="st0" d="M120.1,20.2c0-0.2-0.6-0.5-2-0.6c-1.6-0.1-4.3-0.1-6,0.1"/>
<path class="st0" d="M134.6,25.9c0-0.1-0.9-0.2-2.4-0.2"/>
<path class="st0" d="M98.7,15.4c0-0.2-0.6-0.3-1.9-0.4c-2.1-0.2-6.2-0.3-8.5-0.3c-2.3,0-2.9,0.1-2.9,0.2"/>
<path class="st0" d="M144,24.4c0-0.4-2.4-0.8-4.2-1"/>
<path class="st0" d="M63,20.7c0-0.2-0.2-0.2-2-0.2"/>
<path class="st0" d="M77.1,17.6l-1-0.3c-1.1-0.2-3.2-0.6-5.7-0.7c-2.5,0-5.4,0.3-6,0.6"/>
<path class="st0" d="M110,15.8l-0.2-0.2c-0.7-0.4-3.7-0.8-5.7-1c-2-0.2-3.1,0-3.5,0.2c-0.2,0.5,0.1,0.7,0.9,0.8
	c1.2,0.3,3.4,0.5,5.4,0.5C108.6,16.2,110,16.1,110,15.8z"/>
<path class="st0" d="M80.4,28.6l0.4,0.3"/>
<path class="st0" d="M133.7,24.1c0-0.2-0.1-0.4-0.4-0.5c-0.8-0.4-2.7-0.5-4.4-0.5"/>
<path class="st0" d="M100.9,14.2c-0.3-0.2-1.9-0.5-4.5-0.4c-2.4,0-5.8,0.4-5.8,0.6"/>
<path class="st0" d="M124.3,17.9l-1.3-0.3c-1.9-0.3-5.9-1-8.6-1.2c-2.8-0.2-4.4,0-5.3,0.1"/>
<path class="st0" d="M109.1,19.5c-0.1-0.3-1.3-0.5-2.7-0.6c-1.4-0.1-3.1-0.1-4.5,0.2"/>
<path class="st0" d="M74.6,16.3c0,0.3,1.8,0.6,3.7,0.6"/>
<path class="st0" d="M76.7,21.3c0-0.3-0.5-0.5-1.8-0.7c-2.1-0.2-6.2-0.2-8.4,0.1c-1.4,0.2-2,0.5-2,0.7l0.4,0.4
	c0.8,0.4,2.4,0.6,3.8,0.7l3.6,0c1.3-0.1,3.1-0.4,3.9-0.8"/>
<path class="st0" d="M122.7,26.8c0-0.3-0.4-0.6-0.8-0.8"/>
<path class="st0" d="M25,21.2c0,0.2,1.5,0.5,2.7,0.6c1.2,0,2.3-0.2,2.3-0.5"/>
<path class="st0" d="M64.7,18.2c-0.1-0.3-1.9-0.6-4.4-0.6"/>
<path class="st0" d="M52.2,18.5l1.7,0.3c1.7,0.1,4.7,0.2,7,0.1c2.2-0.1,3.8-0.3,3.8-0.6"/>
<path class="st0" d="M53.3,26.6c-0.1-0.3-1.3-0.7-3-0.9c-1.6-0.2-3.7-0.1-3.7,0.2"/>
<path class="st0" d="M121.3,23.7c-0.8-0.3-3.2-0.4-5-0.3c-1.6,0.1-2.8,0.3-2.8,0.6"/>
<path class="st0" d="M95.2,18.2L93,18l-1,0.3c-0.6,0.3-1.6,0.8-1.6,1.2"/>
<path class="st0" d="M53.3,22.4c-0.1-0.3-1.8-0.7-3.8-0.7c-2.1,0-4.6,0.2-5.9,0.4c-1,0.2-1.4,0.3-1.4,0.4"/>
<path class="st0" d="M39.2,22.6l1.4-0.3"/>
<path class="st0" d="M56.4,22.6c-1.9,0.2-3.3,0.5-3.4,0.8"/>
<path class="st0" d="M112.1,19.7c-1.8,0.2-2.6,0.6-2.7,0.9"/>
<path class="st0" d="M139.8,23.4c-1.9-0.2-3.1-0.2-3.9,0.2c-0.5,0.3-0.8,0.7-0.8,1"/>
<path class="st0" d="M86,16.2c-2.1,0.2-4.6,0.7-5.8,1l-0.8,0.3"/>
<path class="st0" d="M61,20.5l-7.7,0.3l-1.9,0.3"/>
<path class="st0" d="M94.8,20.8c-0.4,0.1-0.6,0.3-0.6,0.5"/>
<path class="st0" d="M79.2,22.3c-2.7,0.1-4.5,0.3-4.5,0.7"/>
<path class="st0" d="M91.9,20.7c-0.6-0.3-2.3-0.5-4.5-0.5l-6.7,0c-1.6,0-2,0.1-2.1,0.4l-0.1,0.2"/>
<path class="st0" d="M90.7,14.3c0.3,0.2,4.3,0.3,6.9,0.2c2.3,0,3.4-0.2,3.4-0.4"/>
<path class="st0" d="M77.5,18.4c0.1,0.4,1,0.9,2.8,1.2c1.9,0.3,4.7,0.3,6.8-0.1c1.4-0.2,2.4-0.6,2.4-0.9"/>
<path class="st0" d="M125.6,22.3c-1.6-0.2-4.5-0.6-7.1-0.8c-2.6-0.2-5-0.1-6.4,0c-0.9,0.1-1.4,0.2-1.4,0.3"/>
<path class="st0" d="M67.9,23.2c-1.8,0.2-4.6,0.7-5.1,1.1"/>
<path class="st0" d="M46.7,20.3c-1.6-0.1-3.9-0.1-5.7,0.1c-1.6,0.1-2.7,0.4-2.7,0.7"/>
<path class="st0" d="M102,19.1c-1.1,0.2-2.1,0.5-2.1,0.8"/>
<path class="st0" d="M50.1,25.2c1.7-0.2,3-0.5,2.9-0.7"/>
<path class="st0" d="M39.9,19.7l1.5,0.2c1.5,0.1,3.8,0.1,5.6-0.1c1.8-0.2,3.1-0.6,3.4-0.8"/>
<path class="st0" d="M78.5,21.2l0-0.4"/>
<path class="st0" d="M113.5,24.8l-0.2,0"/>
<path class="st0" d="M150.7,22.3c0-0.2-0.9-0.4-2.8-0.7"/>
<path class="st0" d="M142.1,21.8c0,0.6,1.9,0.9,5.6,0.9c2,0,3-0.1,3-0.3"/>
<path class="st0" d="M38.6,20.2c0-0.2-0.8-0.3-2.4-0.2c-1.9,0.1-4.9,0.4-5.9,0.6L30,20.7"/>
<path class="st0" d="M70.7,29.5l-0.2-0.2"/>
<path class="st0" d="M63,20.7l0,0.2"/>
<path class="st0" d="M50.6,18.8c0-0.2-0.7-0.3-2.4-0.2l-7.4,0.8"/>
<path class="st0" d="M64.3,25.9l-0.4-0.3"/>
<path class="st0" d="M141,21.6c0-0.2-0.1-0.5-0.3-0.6"/>
<path class="st0" d="M92.3,21.1l-0.3-0.4"/>
<path class="st0" d="M92.3,21.1l0,0.3"/>
<path class="st0" d="M127.1,22.6l-1.5-0.3"/>
<path class="st0" d="M84.3,15.6c0-0.2-0.8-0.4-2.5-0.4c-2.3,0-6.1,0.5-7,0.9l-0.2,0.2"/>
<path class="st0" d="M64.3,27l0,0.3"/>
<path class="st0" d="M134.6,19.9l-0.3-0.2c-1-0.4-4.5-1-6.3-1.2c-1.9-0.3-2.1-0.3-3.1-0.1"/>
<path class="st0" d="M102.8,23.4l0,0.2"/>
<path class="st0" d="M155.2,23.1c0-0.2-1-0.3-2.8-0.3"/>
<path class="st0" d="M147.9,21.6c-3.7-0.6-5.6-0.6-5.8,0"/>
<path class="st0" d="M31.9,21.1c1.3,0.1,2.7,0,4-0.1c1.3-0.2,2.5-0.5,2.7-0.7"/>
<path class="st0" d="M40.7,19.4l-0.9,0.3"/>
<path class="st0" d="M91.6,31.5l0.8-0.4"/>
<path class="st0" d="M100.7,14.9l-0.2,0.3"/>
<path class="st0" d="M112.9,21.1l-1.3,0.1"/>
<path class="st0" d="M109.1,16.5l-0.7,0.1"/>
<path class="st0" d="M78.3,16.8c2.3-0.1,4.8-0.6,5.7-1l0.4-0.3"/>
<path class="st0" d="M76.2,21.8l0.5-0.5"/>
<path class="st0" d="M30,21.3c-0.1-0.2-1.3-0.4-2.5-0.4c-1.2,0-2.5,0.1-2.5,0.3"/>
<path class="st0" d="M60.3,17.6c-2.5,0-5.9,0.4-7.3,0.6l-0.8,0.3"/>
<path class="st0" d="M91.1,22.7l-0.2,0.4"/>
<path class="st0" d="M98.4,12.3L15,21"/>
<path class="st0" d="M166.4,23.3l-68-11"/>
<path class="st0" d="M166.4,23.3l-0.1,3.4"/>
<path class="st0" d="M15.2,24.3L15,21"/>
<path class="st0" d="M65.9,27.7c0,0.2,0.3,0.3,0.7,0.5c1.2,0.4,3.9,0.6,5.9,0.7c2,0.1,3.3,0,4.5-0.2c1.2-0.2,2.4-0.6,2.6-0.9"/>
<path class="st0" d="M121.3,68.4c0.3-0.2,0.4-0.5,0.5-1"/>
<path class="st0" d="M79.6,27.6c0-0.2-0.9-0.4-3.1-0.5c-2.5-0.1-6.6-0.2-8.7,0c-1.3,0.1-1.9,0.3-1.9,0.6"/>
<path class="st0" d="M144,57.4l-0.6,0.4"/>
<path class="st0" d="M113.5,50.7c1.1,0.9,2.4,1.7,3.5,2.1"/>
<path class="st0" d="M152.8,58.7l-0.3-0.2"/>
<path class="st0" d="M164,27.2"/>
<path class="st0" d="M161.5,105.7"/>
<path class="st0" d="M78.1,32.5c0,0.3,1.4,0.4,3.8,0.3c3.2-0.2,8.1-0.8,9.8-1.3"/>
<path class="st0" d="M135.8,91.6c0.4-0.5,0.3-1.4-0.1-2.3"/>
<path class="st0" d="M24.2,95.6c-0.5-0.6-1.2-0.9-1.6-0.8"/>
<path class="st0" d="M92.4,31.2c0-0.2-0.9-0.4-1.6-0.4c-1.1-0.1-1.9-0.1-4.3,0.2c-2.4,0.3-6.5,0.9-7.8,1.3l-0.5,0.3"/>
<path class="st0" d="M127.9,44.8l0.2-0.5c0.3-1.5-0.7-3.5-1.8-4.7l-1.3-0.9"/>
<path class="st0" d="M61.5,19.8c0-0.2-0.6-0.4-1.5-0.5c-1.7-0.2-4.6-0.3-6.7-0.2c-2.1,0.1-3.4,0.5-3.6,0.8"/>
<path class="st0" d="M116,53.3c0.6-0.1,1.1-0.5,1.4-1"/>
<path class="st0" d="M39.9,77.7c-0.9-1.9-2.6-4-4-4l-0.3,0"/>
<path class="st0" d="M57.2,63.4c1.4-0.2,2.3-1.2,2.9-2.4c0.6-1.2,0.7-2.7,0.5-3.5c-0.1-0.9-0.5-1.2-1.9-1.5"/>
<path class="st0" d="M91.9,17.5l0,0.2"/>
<path class="st0" d="M144.7,59.7c0.7,0.2,1.4,0.7,1.6,1.6c0.4,1.8-0.8,5.3-1.6,7.2c-0.8,1.9-1.1,2.1-1.3,2.1"/>
<path class="st0" d="M142.2,77.1c1.4,0.4,2.2,2.9,2.2,4.6c-0.1,1.8-1.1,2.8-2.7,2.9c-0.8,0.1-1.8-0.1-2.7-0.4"/>
<path class="st0" d="M122.8,58.8c1.7,0.4,3.4,1.6,4.3,2.5c1.2,1.2,1.1,1.8,0.9,2.4"/>
<path class="st0" d="M103.5,69.6c2,0.6,4.3,2.2,3.7,3.9c-0.6,1.8-4.4,3.8-6.7,4.7"/>
<path class="st0" d="M149,93.7c0.9,0.3,1.1,0.9,1,1.8"/>
<path class="st0" d="M120.1,39.6c0.3,0.1,0.7,0.3,1.2,0.8c1.2,1.2,3,3.6,3.1,5.7"/>
<path class="st0" d="M133.3,46.1c0.6,0.1,1.2,0.4,1.9,1.2c1.2,1.3,2.5,3.8,3.1,5.2c0.6,1.4,0.6,1.6-0.8,2.5"/>
<path class="st0" d="M156.8,60.4c0.3,0.1,0.5,0.4,0.7,1c0.4,1.7,0.3,5.5-0.3,7.5c-0.6,2-1.8,2.2-2.6,2"/>
<path class="st0" d="M134.3,92.8c1.3,0.4,2.6,1.2,3.4,1.9c1.1,0.9,1,1.4-0.2,2.6c-1.2,1.2-3.4,3.1-4.6,4c-0.7,0.5-1.1,0.8-1.3,0.7"
	/>
<path class="st0" d="M133.2,92.6l2.2,1.4c1.1,0.9,1,1.4-0.2,2.6c-1.2,1.2-3.4,3-4.6,4"/>
<path class="st0" d="M129.6,65.3c0.6,0.2,1.4,0.7,2.1,1.8c0.8,1.3,1.4,3.3,1.3,5.1"/>
<path class="st0" d="M148.9,101c1.1,0.4,1.5,1.6,0.3,2.5c-1.3,1.1-4.4,1.9-5.9,1.7l-0.4-0.1"/>
<path class="st0" d="M155.2,84.7c0.4,0.1,0.8,0.4,1.1,0.9c0.8,1.5,0.7,4.6-0.3,6.3c-1,1.7-2.8,2.1-3.9,1.9"/>
<path class="st0" d="M146.6,50.4c1.1,0.2,1.9,1.2,2.3,2.3"/>
<path class="st0" d="M130.9,79l0.4,0.2c1,0.5,2.2,1.6,2.8,2.4c0.6,0.8,0.6,1.4,0.1,2.7"/>
<path class="st0" d="M138.3,85.4c0.9,0.3,1.8,0.9,2.2,1.9c0.7,1.7-0.1,4.3-0.5,5.6c-0.3,1-0.4,1.3-1,1.1"/>
<path class="st0" d="M103.9,41.8l0.4,0.1c1.6,0.6,1.2,2.3,0.1,3.6"/>
<path class="st0" d="M91.9,92.3c1.1,0.4,2.2,1.3,2.7,2.4c0.6,1.3,0.6,2.9,0.2,4.3c-0.4,1.4-1.2,2.6-2.5,3.5c-0.9,0.6-1.9,1-2.8,0.7"
	/>
<path class="st0" d="M90.8,92.1c0.7,0.5,1.2,1.1,1.6,1.9c0.6,1.3,0.6,2.9,0.2,4.3c-0.4,1.4-1.2,2.6-2.5,3.5l-1.5,0.7"/>
<path class="st0" d="M156.5,48.8l0.5,0.2c1.2,1,1.1,5,0.5,7.3c-0.5,2.3-1.5,2.8-2.8,2.7"/>
<path class="st0" d="M128.5,38.3l1.2,0.5c1.6,1,1.5,3.6,1.4,5"/>
<path class="st0" d="M138.8,56.6c1,0.2,1.4,1.2,1.4,2.4c0,1.5-0.7,3.2-2.1,4.3c-1.4,1.1-3.5,1.5-5.1,1.5l-1.2-0.2"/>
<path class="st0" d="M156,72.7c0.4,0.1,0.7,0.5,0.9,1.2c0.5,1.7,0.4,5.3-0.5,7.2c-0.9,1.9-2.6,2.1-3.6,2.1"/>
<path class="st0" d="M155,95.2l0.9,0.6c0.9,1.1,0.8,3.7,0,5.2"/>
<path class="st0" d="M127.2,88.7l2.7,1.1c1,0.5,1,0.7,0.5,1.6c-0.5,0.9-1.5,2.7-3,3.9c-1.4,1.1-3.2,1.7-4.6,1.2"/>
<path class="st0" d="M114.3,40.4c0.5,0.1,1,0.3,1.3,0.7c1.2,1.3,0.1,4.4-1.1,6.3"/>
<path class="st0" d="M109.2,59.8c1.5,0.4,3.2,1.8,4.1,3.3"/>
<path class="st0" d="M142.3,71.8c0.2,0.1,0.2,0.2,0.2,0.4c0,0.4-0.1,1.2-1.3,2.7c-1.2,1.5-3.5,3.8-5.2,4.4"/>
<path class="st0" d="M150.6,59.4c1,0.2,2.4,0.9,2.8,2.5c0.5,1.8-0.2,4.9-1.8,6.5"/>
<path class="st0" d="M128.2,47.4c0.5,0.1,0.9,0.6,1.2,1.6c0.5,2.1,0.4,6.4,0.2,8.8"/>
<path class="st0" d="M115.3,78.4c0.7,0.2,1.3,0.9,1.8,1.9c1,2,1.6,5.3,1.7,7.1c0.1,1.9-0.2,2.3-1.6,3c-1.5,0.6-4.2,1.5-6,1.1"/>
<path class="st0" d="M155.8,34.2c0.5,0.1,1,0.3,1.4,0.6c1.4,1.1,1.3,3.8-0.3,5"/>
<path class="st0" d="M150,83.6c0.8,0.2,1,0.6,0.9,2c-0.1,1.4-0.7,3.9-2.5,5.5"/>
<path class="st0" d="M150.1,95.5c0,1-0.4,2.3-1.8,3.5c-1.3,1.1-3.6,2.1-5.2,1.7"/>
<path class="st0" d="M124.3,46.1c0.1,2.1-1.5,3.8-3.3,4.2c-0.5,0.1-1.1,0.1-1.6,0"/>
<path class="st0" d="M98.9,81.7c1.2,1.3,2.7,3.7,2.3,5.8c-0.4,2.1-2.8,3.9-4.7,4.4c-0.6,0.1-1.1,0.1-1.6,0"/>
<path class="st0" d="M137.4,55c-1.2,0.8-3.4,2.2-4.8,1.9"/>
<path class="st0" d="M133,72.2c-0.1,1.8-1,3.5-1.9,4.4c-0.7,0.7-1.3,1-2,0.8"/>
<path class="st0" d="M143.5,102.8c1.3-1.1,3.6-2.1,5-1.9l0.4,0.1"/>
<path class="st0" d="M103,61.3c0.6,1.5-0.1,3.6-1.1,5.2c-0.9,1.4-2.1,2.2-3.5,1.8"/>
<path class="st0" d="M139.7,40.3c-0.8,1.5-2.6,3-4,3.7c-0.8,0.4-1.5,0.6-2,0.5"/>
<path class="st0" d="M148,39.5c-0.5,1.2-1,1.6-2.1,1.6L145,41"/>
<path class="st0" d="M156.7,45.6c-1.3,1.6-3.9,3.7-5.7,4.2c-0.5,0.1-1,0.2-1.5,0.1"/>
<path class="st0" d="M152.1,93.8l-0.2-0.1"/>
<path class="st0" d="M107.9,56.8c-0.8,1.3-2,2.1-3.5,2l-1.3-0.2"/>
<path class="st0" d="M91.9,17.5c0-0.3-0.1-0.7-1-1.1c-1-0.3-2.8-0.5-4.9-0.3"/>
<path class="st0" d="M134.2,84.2c-0.6,1.2-1.7,3.2-3.2,3.7c-0.6,0.2-1.3,0.2-1.9,0"/>
<path class="st0" d="M113.4,44.3l-0.6,0"/>
<path class="st0" d="M104.4,45.5c-1.1,1.3-2.9,2.2-4.5,2.3l-1.6-0.1"/>
<path class="st0" d="M118.5,76.7c-0.8,0.1-1.5,0-2.1-0.2"/>
<path class="st0" d="M65.7,26.5c0,0.1,0.4,0.2,2.2,0.2c2.1,0,6.2,0.1,8.8-0.2"/>
<path class="st0" d="M108.4,93.7c0,1.7-0.7,3.4-2.8,4.3c-2,0.8-5.2,0.9-7,0.2"/>
<path class="st0" d="M113.1,44.9l-1.4,1.5c-0.4,0.6-0.6,1.1-0.5,1.6"/>
<path class="st0" d="M113.3,63.1c0.9,1.5,0.9,3.1,0.6,4.7c-0.3,1.6-1.1,3.2-1.6,4c-0.3,0.5-0.6,0.7-1,0.5"/>
<path class="st0" d="M135.9,79.3c-0.6,0.2-1.1,0.2-1.6,0.1"/>
<path class="st0" d="M151.6,68.4c-1,1-2.4,1.4-3.4,1.1"/>
<path class="st0" d="M129.6,57.8c-0.2,2-0.4,2.6-1.2,2.4"/>
<path class="st0" d="M148.4,91.1c-1.5,1.4-4,2.1-5.4,1.6"/>
<path class="st0" d="M82.7,126.6l-0.4-0.2"/>
<path class="st0" d="M121.5,43.6l-1.4-1.6c-0.5-0.5-1.1-0.7-1.7-0.9"/>
<path class="st0" d="M140.9,56.2l0.2-0.7c0.2-0.7,0.1-1.6-0.2-2.3"/>
<path class="st0" d="M134.1,43l0.4-1.3c0.2-1.2-0.2-2.5-0.8-3.6"/>
<path class="st0" d="M143.4,91.8l-1.2-1.3"/>
<path class="st0" d="M54.7,107.6c-0.6-1.6-1.9-3.4-2.6-4.3c-0.5-0.6-0.7-0.8-0.9-0.8"/>
<path class="st0" d="M153.3,75.9c0.7-0.6,1.2-1.4,1.4-2.3"/>
<path class="st0" d="M80,25.2c-0.2-0.4-1.5-0.4-3.9-0.3c-2.4,0.1-5.9,0.4-7.9,0.7c-2,0.3-2.3,0.6-2.4,0.8"/>
<path class="st0" d="M127.1,48.6c-0.4,0.6-0.4,1.2,0,2.2"/>
<path class="st0" d="M29.8,22.1c0.1,0.3,1.3,0.5,3.3,0.6c2,0.1,4.6,0,6.1-0.2"/>
<path class="st0" d="M151.2,56.1l0.9-0.6c0.9-0.9,2.2-2.7,1.8-5l-0.1-0.6"/>
<path class="st0" d="M40.5,22.3L40.1,22c-0.7-0.2-2.4-0.5-4-0.7c-1.5-0.1-2.9-0.1-4.1,0.1c-1.2,0.1-2.3,0.4-2.2,0.7"/>
<path class="st0" d="M42.2,22.5l0.2,0.2c0.4,0.2,1.5,0.4,2.9,0.5c1.5,0.1,3.3,0.2,5,0c1.6-0.2,3.1-0.5,3-0.8"/>
<path class="st0" d="M152.4,47c-0.8-1.1-1.7-2.1-2.5-2.6c-0.9-0.6-1.6-0.8-2.3-0.7"/>
<path class="st0" d="M59.8,89.2c-1.7-1.3-4.5-2.3-6-2.4l-0.8,0"/>
<path class="st0" d="M56.2,55.7c-1.3,0.7-1.9,2-2,3.1c-0.1,1.2,0.3,2.1,1.4,2.9c0.8,0.5,1.9,1,3,1.2"/>
<path class="st0" d="M34.2,87.6l0.2,0c1-0.3,1.5-1.6,1-3.3c-0.5-1.7-2.1-3.8-2.9-4.9c-0.4-0.6-0.7-0.8-0.8-0.8"/>
<path class="st0" d="M68.9,30.2l-0.5,0"/>
<path class="st0" d="M146.8,65.5c0.4-0.2,0.7-0.5,0.9-1.1c0.4-0.8,0.7-2.1,0.5-3.3"/>
<path class="st0" d="M29.9,80.1c-0.5,0.3-1,0.7-1.3,1.4"/>
<path class="st0" d="M50.3,43.9c1-0.1,2-0.5,2.7-1.1c0.7-0.5,1.1-1.2,1.5-1.9"/>
<path class="st0" d="M145.5,57.8c-0.8-0.3-1.8-0.5-2.5-0.4"/>
<path class="st0" d="M24.5,55.7c0.6-1.4-0.4-4.9-1.5-7.1c-0.8-1.6-1.7-2.6-2.3-2.5"/>
<path class="st0" d="M29.7,89.4l-0.5,0.2c-0.3,0.2-0.5,0.6-0.6,1"/>
<path class="st0" d="M34.4,60.5l0.8-0.7"/>
<path class="st0" d="M148.5,78.9c-0.9-0.6-2-0.9-2.9-0.8"/>
<path class="st0" d="M39.1,68.7l1-0.5c0.7-0.4,1.6-1,2.2-1.7"/>
<path class="st0" d="M45.8,64.2c0.6,1.4,1.9,3.4,3.2,4.1"/>
<path class="st0" d="M128.2,86.5c1.2-0.3,2.1-1.4,2.1-2.5c0-1.2-0.8-2.4-2-3.2"/>
<path class="st0" d="M73.4,92.1c-1,1.1-2.9,3.3-3.4,5.5c-0.5,2.3,0.3,4.7,1.3,6.1c0.6,0.8,1.2,1.3,1.8,1.1"/>
<path class="st0" d="M35,66.8c1.1-0.2,1.6-1.6,1.3-3.6c-0.4-2.4-2.1-5.7-3.7-6.4l-1-0.1"/>
<path class="st0" d="M25.3,37.8c-0.9,0.7-1.7,1.8-2.2,2.6c-0.7,1.2-0.7,1.9-0.1,2.7"/>
<path class="st0" d="M126.8,84.8c0.7,0.6,1.6,1,2.5,1.2"/>
<path class="st0" d="M125.6,61.8c-0.8,0.4-1.5,1-1.9,1.7"/>
<path class="st0" d="M149.3,67.6c-0.9-0.4-1.5-0.5-2.1-0.4"/>
<path class="st0" d="M42.7,53.2c0.3,1.7,1.2,4.1,2.4,5.1"/>
<path class="st0" d="M155.2,34.9l-0.8,1.1c-0.8,1.4-0.8,2.1,0.5,2.7"/>
<path class="st0" d="M132.3,90l0.4,0.3c0.8,0.5,2,1,3.1,1.2"/>
<path class="st0" d="M105,52.6c0.6-0.2,1.1-0.6,1.5-1"/>
<path class="st0" d="M137,72.7l1.3,2.2"/>
<path class="st0" d="M137,85.2c0.2,0.6,0.7,1.2,1.2,1.6"/>
<path class="st0" d="M108,45.8l0.7-0.4c1.1-0.7,2.9-2.4,3.8-3.3c0.9-0.8,0.9-0.9,0.2-1.8"/>
<path class="st0" d="M27.8,85c-0.3,0.5-0.5,1.1-0.5,1.8c0,1.3,0.5,3,1.5,4l0.6,0.5"/>
<path class="st0" d="M33,57c-0.6,0.5-1.1,1.2-1.4,1.8c-0.7,1.3-0.5,2.1,0.7,3.6"/>
<path class="st0" d="M27.9,83.5l0.7-0.4c0.8-0.9,1.5-3.1,1.2-4.9c-0.3-1.8-1.7-3.2-3-3.3l-0.6,0"/>
<path class="st0" d="M39.5,86.2c-0.4,0.7-0.6,1.6-0.6,2.7"/>
<path class="st0" d="M136.8,65.9c-0.2,0.9,0.2,1.8,1.3,2.5"/>
<path class="st0" d="M144.6,50.6l-0.1,0.3c-0.4,1.3,0,2.8,1.3,3.9l1.1,0.8"/>
<path class="st0" d="M153.2,41.5l0.4,1.4l1,1.7"/>
<path class="st0" d="M153.7,34.2l-1.6,2.2c-0.8,1.4-0.8,2.1,0.5,2.7l1.3,0.5"/>
<path class="st0" d="M41.6,86.9c0.1,1.7,0.7,4.8,1.8,6.6c0.8,1.3,1.9,2,2.8,1.8"/>
<path class="st0" d="M154.9,76.3c-0.9,1-1.7,2.1-2.1,3.3c-0.3,0.9-0.3,1.7-0.2,2.6"/>
<path class="st0" d="M111.9,51.6c1.1,0.8,2.4,1.6,3.4,1.7l0.7,0"/>
<path class="st0" d="M150.6,55.9l0.6,0.2"/>
<path class="st0" d="M126.9,69.7l2.4,1l1.4,0.2"/>
<path class="st0" d="M144.9,71.5l0,0.4c0,1.4,0.4,2.7,1.4,3.9c0.7,0.8,1.7,1.4,2.9,1.6"/>
<path class="st0" d="M106.9,44.5c0.3,0.9,0.6,1.3,1,1.2"/>
<path class="st0" d="M155.4,53.1c-0.9,0.9-1.8,2.4-1.5,3.9l0.3,0.8"/>
<path class="st0" d="M130.4,60.9c0.8,1,1.9,1.9,3.1,2.2l1.2,0"/>
<path class="st0" d="M127.9,38.9c0,0.9,0.3,1.9,0.8,2.9"/>
<path class="st0" d="M125.8,88.3l0.6,0.3"/>
<path class="st0" d="M145.7,93.8l1,1.3"/>
<path class="st0" d="M150.9,41.4c-0.2,0.4-0.1,1,0.3,1.9l1.9,3"/>
<path class="st0" d="M102.5,48.6c0.1,0.8,0.3,1.5,0.6,2.1"/>
<path class="st0" d="M44.5,86.3c0.1,1.7,0.7,4.8,1.8,6.6l1.1,1.3"/>
<path class="st0" d="M146,83.8l1.2,1"/>
<path class="st0" d="M20.4,38.2c0.8-0.1,1.9-1.6,2.5-2.9c0.7-1.6,0.5-3-0.4-3.8c-0.5-0.5-1.1-0.8-1.7-0.7"/>
<path class="st0" d="M140.3,77.6l1.4,1.2"/>
<path class="st0" d="M153.6,68.9l0.7,0.6"/>
<path class="st0" d="M153.9,66.5l1.1,1.1"/>
<path class="st0" d="M150,59.7l-0.1,0.3c-0.3,1.3-0.7,3.5,0.6,5.7"/>
<path class="st0" d="M100.6,50.5l0.3,0.5"/>
<path class="st0" d="M138.7,78.8c0.7,0.6,1.4,0.9,2,0.7"/>
<path class="st0" d="M100.7,41.8l0.3,0.5c0.5,0.8,1.1,1.4,1.7,1.7"/>
<path class="st0" d="M137.7,37.6l0,1"/>
<path class="st0" d="M132.8,43.9l0.5,0.4"/>
<path class="st0" d="M108.5,41.7l0.6,2l0.4,1"/>
<path class="st0" d="M147.3,71.2l0,0.2c0,1.4,0.4,2.7,1.4,3.8l1,0.8"/>
<path class="st0" d="M151.2,53.1l1,1.4l0.3,0.4"/>
<path class="st0" d="M160.7,105.5l0.8,0.3"/>
<path class="st0" d="M135,73.7l1.8,2.8"/>
<path class="st0" d="M138.2,49.5l2.1,0.1"/>
<path class="st0" d="M119.4,59.2c0.8,0.7,1.8,1.4,2.8,1.6l1.5,0"/>
<path class="st0" d="M117.8,54.4l-0.4,0.7l-0.3,0.8"/>
<path class="st0" d="M153.2,41.5l1.3,0.3"/>
<path class="st0" d="M123.7,60.9l0.9-0.2"/>
<path class="st0" d="M140.7,79.5l0.5-0.2l0.6-0.3"/>
<path class="st0" d="M142.2,90.5l-0.3-0.2"/>
<path class="st0" d="M123.4,52.2l-0.7-0.4"/>
<path class="st0" d="M142.5,42.9l-3-0.2"/>
<path class="st0" d="M135.6,89.3c-0.4-0.8-1-1.7-1.6-2.5"/>
<path class="st0" d="M120.9,62.9c-0.6-1.1-1.6-2.3-2.6-2.9"/>
<path class="st0" d="M141.9,36.9l1.7,3.5"/>
<path class="st0" d="M58.7,56c-1.1-0.2-2.8-0.5-4.3-0.2"/>
<path class="st0" d="M124.5,49.6c-0.1,0.4,0,0.9,0.3,1.5"/>
<path class="st0" d="M147.3,67.2l-0.7,0.3"/>
<path class="st0" d="M153.8,87.5c-0.5,0.1-0.8,0.6-0.8,2.2l0,2.5"/>
<path class="st0" d="M138.3,80.8l-0.6,0.2l-1.6,0.9"/>
<path class="st0" d="M145.5,78.1l-0.6,0.2"/>
<path class="st0" d="M142.8,57.4l-0.4,0.1"/>
<path class="st0" d="M147.7,43.6l-0.6,0.2"/>
<path class="st0" d="M112.7,44.3c-1.4,0.2-2.7,1.5-3.3,2.4c-0.6,0.8-0.7,1.4-0.3,2.1"/>
<path class="st0" d="M122.9,69.5c-0.4,0.1-0.6,0.4-0.6,1"/>
<path class="st0" d="M132.6,55.4l-1.2,0.4"/>
<path class="st0" d="M144.8,87.6c-1.2,0.3-1.3,1-0.9,2.4l0.5,1.4"/>
<path class="st0" d="M135.1,53.6l0.3,0.6"/>
<path class="st0" d="M124.8,51.2c0.5,1,1.5,2.4,2.6,3.2"/>
<path class="st0" d="M123.7,63.5l-0.5,1.2"/>
<path class="st0" d="M148.6,67.3l-0.2,0.2"/>
<path class="st0" d="M139.4,80.8c-1,0.6-2.1,1.5-2.4,2.5"/>
<path class="st0" d="M146.7,78.1c-0.5,0.3-0.9,0.8-1.2,1.4"/>
<path class="st0" d="M148.9,43.8l-0.2,0.2"/>
<path class="st0" d="M151.6,56l-0.4,0.1"/>
<path class="st0" d="M146.3,87.5c-0.4,0.4-0.3,1.1-0.1,2l0.2,0.5"/>
<path class="st0" d="M138.1,68.4l0.2,0.1"/>
<path class="st0" d="M135.8,68.8l2,0.9"/>
<path class="st0" d="M103.2,50.7c0.6,0.9,1.5,1.4,2.4,1.6"/>
<path class="st0" d="M148.5,67.5l-0.6,1.1"/>
<path class="st0" d="M147.2,84.8l1.3,0.6"/>
<path class="st0" d="M144.8,85.4c0.9,0.6,2.2,0.9,3.4,1.2"/>
<path class="st0" d="M143,57.4l-0.3,0"/>
<path class="st0" d="M127.1,50.8l0.2,0.5"/>
<path class="st0" d="M148.7,44c-0.7,0.8-0.9,2.1-0.1,4.2l0.4,0.9"/>
<path class="st0" d="M124.2,41l0.6,2.1"/>
<path class="st0" d="M163.8,105.1l2.7-78.2"/>
<path class="st0" d="M140.8,61.9c0.7,0.7,1.8,1.7,2.8,2.5"/>
<path class="st0" d="M144.3,85l0.5,0.4"/>
<path class="st0" d="M134.8,86.1c0.5,0.9,1.3,1.7,2.3,2.1l1.2,0.4"/>
<path class="st0" d="M127.2,86.5l0.7,0l0.3,0"/>
<path class="st0" d="M153.2,95.2l0.4,1.5l0.3,0.6"/>
<path class="st0" d="M131.2,103.4l0.5,0.7c0.4,0.8,1.1,2.5,0.2,3.7c-0.9,1.1-3.2,1.8-4.3,1.4"/>
<path class="st0" d="M115.4,106.9l0.7,0.6c0.7,1,1,2.9-0.6,4.4c-1.6,1.4-5.2,2.4-7.1,2.8"/>
<path class="st0" d="M97.5,80.7c0.4,0.1,0.9,0.5,1.3,1"/>
<path class="st0" d="M100.1,111.6l0.4,0.2c1.3,0.6,3,2.1,3.9,2.8c0.8,0.8,0.9,0.9-1.4,1.5c-2.2,0.6-6.6,1.7-8,1.2"/>
<path class="st0" d="M105.6,89l0.9,0.6c0.9,0.8,1.8,2.4,1.8,4.1"/>
<path class="st0" d="M138.9,99.2c1.2,0.4,1.9,1.9,2.1,3.2c0.3,1.5,0,2.7-1.3,3.6c-1.2,0.8-3.3,1.4-4.7,0.9"/>
<path class="st0" d="M94.1,78.8c0.8,0.2,0.8,0.7,0.4,2.3c-0.5,1.9-1.8,5.4-3,7.4c-0.8,1.2-1.6,1.8-2.3,1.6"/>
<path class="st0" d="M123.1,105.2c0.8,0.3,1.5,0.7,2,1.2c1,1,0.6,2.5-0.7,3.5c-1.3,1-3.4,1.6-4.8,1.1"/>
<path class="st0" d="M106.3,112.5c-0.7,0.2-1.3,0.2-1.8,0"/>
<path class="st0" d="M160.6,105.9l-77.9,20.7"/>
<path class="st0" d="M134.5,66.3c-0.2,0.9,0.2,1.8,1.3,2.5"/>
<path class="st0" d="M129.9,79.2c0.2,1.8,1.1,3,1.6,3.7l0.4,0.4"/>
<path class="st0" d="M32.3,62.3c0.9,1.1,2.5,2.7,3.9,3.4"/>
<path class="st0" d="M67.4,71.1c0.2,0,0.5-0.3,0.8-0.7c0.8-1,1.9-2.9,1.5-5.5c-0.4-2.6-2.5-5.7-4-7.1c-0.8-0.7-1.5-0.9-2.1-0.8"/>
<path class="st0" d="M27.8,75.2c-0.3,0.4-0.6,0.9-0.6,1.5c-0.2,1.5,0.7,3.6,1.6,4.9"/>
<path class="st0" d="M138,90.3c-0.6,0.4-0.9,1.1-0.6,1.8"/>
<path class="st0" d="M135.2,50.6c-0.7,0.5-0.8,1.7-0.1,3"/>
<path class="st0" d="M117,45.8c0.7,1.2,1.6,2.3,2.3,3.1l0.5,0.4"/>
<path class="st0" d="M142,52.3c0,1,0.4,2.1,1.4,3c0.8,0.7,2.1,1.3,3.2,1.7"/>
<path class="st0" d="M135.7,36.9l-0.1,0.3c-0.5,1.3-0.2,2.7,1.1,3.5"/>
<path class="st0" d="M124.5,39.1c-0.3,0.5-0.4,1.1-0.3,1.9"/>
<path class="st0" d="M143.9,35.6l1.6,3.6"/>
<path class="st0" d="M147,64.7l0.3,0.1l0.2,0.1"/>
<path class="st0" d="M65.3,57.6c-0.5,0.9-0.5,2.3,0.2,4.5c0.8,2.3,2.5,5.5,3.5,7.1"/>
<path class="st0" d="M142.2,60.1l0.8,1.3l1,1"/>
<path class="st0" d="M117.7,42.8c0.7,1.3,2.1,3.8,3.4,5.3"/>
<path class="st0" d="M136.1,70.6l-0.4,0l-0.8,0"/>
<path class="st0" d="M127.3,68.1c0.9,0.8,2.1,1.4,3.2,1.8"/>
<path class="st0" d="M42.4,42c-0.6,1.9,0.2,4.2,1.1,5.5l0.7,0.8"/>
<path class="st0" d="M42.8,49.2l0.7-0.3c1-0.6,1.8-2.1,1.9-4.2c0.1-2.1-0.5-4.7-1.8-5.3l-0.8-0.1"/>
<path class="st0" d="M135.7,77.4c-0.3-1.1-0.9-2.2-1.5-3"/>
<path class="st0" d="M151.9,92.9c-0.1-1-0.4-2.1-0.9-3"/>
<path class="st0" d="M137.7,58.8l-1.4-1.7"/>
<path class="st0" d="M121.7,65.1l-0.8-2.2"/>
<path class="st0" d="M78,35.1L78,39"/>
<path class="st0" d="M155.8,101c-0.8,1.4-2.3,1.9-3.3,1.5"/>
<path class="st0" d="M144,75.3l-0.2-1.1"/>
<path class="st0" d="M128.9,75.8c0.1-1,0-2-0.5-2.9c-0.4-0.8-1.1-1.4-1.8-1.9"/>
<path class="st0" d="M142.9,43l-0.5-0.1"/>
<path class="st0" d="M90.9,46.7c0.3-0.9,0.4-2.2,0.4-3.4"/>
<path class="st0" d="M78,35.1l88.4-11.8"/>
<path class="st0" d="M41.7,65.8c-0.7-0.6-1.4-0.8-2-0.7"/>
<path class="st0" d="M137.5,48l0.3,0.2c0.8,0.4,1.9,0.8,3.1,1"/>
<path class="st0" d="M127.3,56.9l-0.3-0.5c-0.8-1.3-2.3-3.3-3.6-4.2"/>
<path class="st0" d="M97.4,47.3l0-4.5"/>
<path class="st0" d="M138.4,36.7l0.5,0.1c1.4,0.5,1.5,2,0.7,3.5"/>
<path class="st0" d="M146.8,35.3l0.9,0.3c1.1,0.8,0.8,2.7,0.3,3.8"/>
<path class="st0" d="M151.8,71.3c0.9,0.2,1.1,0.8,0.9,2.4"/>
<path class="st0" d="M121.6,58.7c0.8,0.8,1.8,1.5,2.8,1.7"/>
<path class="st0" d="M143.2,41.8c0.8,0.2,1.5,0.6,2,1.3"/>
<path class="st0" d="M92.1,64.2c1.7,1.3,3.4,3.7,3.9,6.1c0.5,2.4-0.4,4.7-2,5.7c-0.9,0.6-2,0.8-3.1,0.5"/>
<path class="st0" d="M145.1,43.1c0.7,1.2,0.6,3.1-0.5,4.9c-1,1.7-3,3.4-4.6,3"/>
<path class="st0" d="M125.8,97.7c1,0.9,1.5,2.4,1.4,3.6c-0.2,1.4-1.4,2.3-3.2,2.4l-1.8-0.1"/>
<path class="st0" d="M147.5,93.6c0.2,0.3,0.2,0.7,0.2,1.2"/>
<path class="st0" d="M145.4,35.3c1,0.8,0.6,2.6,0.2,3.7"/>
<path class="st0" d="M99.8,16.1c-2.3,0-4.6,0.1-5.7,0.4c-0.7,0.2-0.9,0.5-0.9,0.7"/>
<path class="st0" d="M114.3,58.9l0.8-1.2c0.7-1.2,0.6-1.6-0.6-2.7c-0.8-0.7-2.1-1.8-3.4-2.5"/>
<path class="st0" d="M109.7,74.8c0,0.5-0.1,1.3-0.5,2.4"/>
<path class="st0" d="M89.6,63.5l0.2,0.1"/>
<path class="st0" d="M150.1,38.6l-0.2-1.1"/>
<path class="st0" d="M100.6,59.5c1.1,0.3,2,0.9,2.3,1.8"/>
<path class="st0" d="M154.6,41.8l1.9,0.6c1.5,0.7,1.5,1.7,0.2,3.2"/>
<path class="st0" d="M48.5,104l-0.7,0.2"/>
<path class="st0" d="M131.7,64.2c-0.5-0.8-1.1-1.5-1.9-2"/>
<path class="st0" d="M92.1,105.4l0.5,0.2"/>
<path class="st0" d="M131,54.4c0.6-0.4,1.2-0.9,1.6-1.5c0.9-1.2,1-2.5,0.9-3.5c-0.1-1-0.5-1.9-1.2-2.5l-0.9-0.5"/>
<path class="st0" d="M108.5,114.6l-1.4,0.2"/>
<path class="st0" d="M100.5,78.2c-1.9,0.7-2.9,0.7-3.5,0.5"/>
<path class="st0" d="M34.4,53l0.3,0"/>
<path class="st0" d="M152.4,22.8l-8.7,0c-1.6,0-2.4,0.1-2.4,0.2"/>
<path class="st0" d="M131.9,83.5c-0.6,1.2-1.7,3.1-3.2,3.6l-0.7,0.1"/>
<path class="st0" d="M91.5,92.2l0.4,0.1"/>
<path class="st0" d="M59.9,41.7c-1.1-1.2-2-1.7-2.6-1.6"/>
<path class="st0" d="M89.8,63.6c1.7,1.3,3.4,3.7,3.9,6.1c0.5,2.4-0.4,4.6-2,5.7c-0.6,0.4-1.2,0.6-1.9,0.6"/>
<path class="st0" d="M137.8,56.6l0.9,0"/>
<path class="st0" d="M152.9,83.2l-0.5-0.1"/>
<path class="st0" d="M44.1,39.7c-0.7,0.6-1.3,1.4-1.6,2.3"/>
<path class="st0" d="M27.3,58.1l0.6-0.4c0.9-0.8,2.5-2.6,3.3-3.6c0.8-1,0.8-1,0-2.2c-0.9-1.1-2.6-3.3-4-4.3
	c-0.6-0.4-1.1-0.6-1.5-0.5"/>
<path class="st0" d="M93.5,78.7l0.6,0.1"/>
<path class="st0" d="M111.2,91.5l-0.4-0.1"/>
<path class="st0" d="M66.5,47.3c0.6-0.1,1.2-0.5,1.7-1.4c1.5-2.3,0.4-3.9-3.1-4.7"/>
<path class="st0" d="M34.7,96.6c0.8-0.2,1.4-0.8,1.4-2.1c0-1.3-0.6-3.2-1.6-4.5"/>
<path class="st0" d="M36.1,53.1c-0.1,0.1,0,0.4,0.7,1.8c0.8,1.7,2.5,5,3.8,6.5l0.6,0.6"/>
<path class="st0" d="M47.4,108c0.8-0.2,0.6-1.1-0.3-2.1"/>
<path class="st0" d="M56.4,54.4c0.6-0.1,1.2-0.4,1.3-1.1c0.5-1.6-1-5-2.4-6c-0.4-0.3-0.8-0.3-1.1-0.3"/>
<path class="st0" d="M127.2,107.1l2.8-0.7"/>
</svg>
